<svg width="15" height="15" viewBox="0 0 15 15" fill="none" xmlns="http://www.w3.org/2000/svg">
<path d="M7.17949 7.75862C6.49241 7.75862 5.82075 7.5311 5.24947 7.10484C4.67818 6.67858 4.23292 6.07271 3.96998 5.36386C3.70705 4.65501 3.63825 3.87501 3.77229 3.1225C3.90634 2.36998 4.2372 1.67876 4.72304 1.13623C5.20888 0.593694 5.82788 0.224226 6.50175 0.0745416C7.17563 -0.0751424 7.87413 0.00168085 8.50891 0.295297C9.14369 0.588912 9.68625 1.08613 10.068 1.72408C10.4497 2.36203 10.6534 3.11206 10.6534 3.87931C10.6534 4.90817 10.2874 5.89489 9.63594 6.6224C8.98445 7.34991 8.10083 7.75862 7.17949 7.75862ZM7.17949 1.55173C6.76724 1.55173 6.36425 1.68824 6.02147 1.94399C5.6787 2.19975 5.41154 2.56327 5.25378 2.98858C5.09602 3.41389 5.05474 3.88189 5.13517 4.3334C5.2156 4.78491 5.41411 5.19964 5.70562 5.52516C5.99712 5.85068 6.36852 6.07236 6.77285 6.16217C7.17717 6.25198 7.59627 6.20589 7.97714 6.02972C8.35801 5.85355 8.68354 5.55522 8.91258 5.17245C9.14161 4.78968 9.26385 4.33966 9.26385 3.87931C9.26385 3.262 9.04425 2.66997 8.65336 2.23346C8.26246 1.79695 7.7323 1.55173 7.17949 1.55173V1.55173ZM13.6642 15C13.4807 14.9973 13.3053 14.9147 13.1755 14.7698C13.0458 14.6249 12.9718 14.4291 12.9694 14.2241C12.9694 12.2069 11.9874 10.8621 7.17949 10.8621C2.37155 10.8621 1.38958 12.2069 1.38958 14.2241C1.38958 14.4299 1.31638 14.6273 1.18608 14.7728C1.05578 14.9183 0.879059 15 0.694789 15C0.51052 15 0.333797 14.9183 0.203499 14.7728C0.0732007 14.6273 0 14.4299 0 14.2241C0 9.31035 5.03027 9.31035 7.17949 9.31035C9.3287 9.31035 14.359 9.31035 14.359 14.2241C14.3566 14.4291 14.2826 14.6249 14.1528 14.7698C14.023 14.9147 13.8477 14.9973 13.6642 15Z" fill="#9BD929"/>
</svg>
