<svg width="16" height="16" viewBox="0 0 16 16" fill="none" xmlns="http://www.w3.org/2000/svg">
<path fill-rule="evenodd" clip-rule="evenodd" d="M12.9232 2C12.9232 2.82843 13.612 3.5 14.4616 3.5C15.3113 3.5 16.0001 2.82843 16.0001 2C16.0001 1.17157 15.3113 0.5 14.4616 0.5C13.612 0.5 12.9232 1.17157 12.9232 2ZM14.4616 9.5C13.612 9.5 12.9232 8.82843 12.9232 8C12.9232 7.17157 13.612 6.5 14.4616 6.5C15.3113 6.5 16.0001 7.17157 16.0001 8C16.0001 8.82843 15.3113 9.5 14.4616 9.5ZM14.4616 15.5C13.612 15.5 12.9232 14.8284 12.9232 14C12.9232 13.1716 13.612 12.5 14.4616 12.5C15.3113 12.5 16.0001 13.1716 16.0001 14C16.0001 14.8284 15.3113 15.5 14.4616 15.5ZM8.30779 15.5C7.45812 15.5 6.76932 14.8284 6.76932 14C6.76932 13.1716 7.45812 12.5 8.30779 12.5C9.15745 12.5 9.84625 13.1716 9.84625 14C9.84625 14.8284 9.15745 15.5 8.30779 15.5ZM6.76932 8C6.76932 8.82843 7.45812 9.5 8.30779 9.5C9.15745 9.5 9.84625 8.82843 9.84625 8C9.84625 7.17157 9.15745 6.5 8.30779 6.5C7.45812 6.5 6.76932 7.17157 6.76932 8ZM8.30779 3.5C7.45812 3.5 6.76932 2.82843 6.76932 2C6.76932 1.17157 7.45812 0.5 8.30779 0.5C9.15745 0.5 9.84625 1.17157 9.84625 2C9.84625 2.82843 9.15745 3.5 8.30779 3.5ZM0.615479 14C0.615479 14.8284 1.30427 15.5 2.15394 15.5C3.00361 15.5 3.6924 14.8284 3.6924 14C3.6924 13.1716 3.00361 12.5 2.15394 12.5C1.30427 12.5 0.615479 13.1716 0.615479 14ZM2.15394 9.5C1.30427 9.5 0.615479 8.82843 0.615479 8C0.615479 7.17157 1.30427 6.5 2.15394 6.5C3.00361 6.5 3.6924 7.17157 3.6924 8C3.6924 8.82843 3.00361 9.5 2.15394 9.5ZM0.615479 2C0.615479 2.82843 1.30427 3.5 2.15394 3.5C3.00361 3.5 3.6924 2.82843 3.6924 2C3.6924 1.17157 3.00361 0.5 2.15394 0.5C1.30427 0.5 0.615479 1.17157 0.615479 2Z" fill="black"/>
</svg>
