<svg width="19" height="18" viewBox="0 0 19 18" fill="none" xmlns="http://www.w3.org/2000/svg">
<path fill-rule="evenodd" clip-rule="evenodd" d="M13.9232 3C13.9232 3.82843 14.612 4.5 15.4616 4.5C16.3113 4.5 17.0001 3.82843 17.0001 3C17.0001 2.17157 16.3113 1.5 15.4616 1.5C14.612 1.5 13.9232 2.17157 13.9232 3ZM15.4616 10.5C14.612 10.5 13.9232 9.82843 13.9232 9C13.9232 8.17157 14.612 7.5 15.4616 7.5C16.3113 7.5 17.0001 8.17157 17.0001 9C17.0001 9.82843 16.3113 10.5 15.4616 10.5ZM15.4616 16.5C14.612 16.5 13.9232 15.8284 13.9232 15C13.9232 14.1716 14.612 13.5 15.4616 13.5C16.3113 13.5 17.0001 14.1716 17.0001 15C17.0001 15.8284 16.3113 16.5 15.4616 16.5ZM9.30779 16.5C8.45812 16.5 7.76932 15.8284 7.76932 15C7.76932 14.1716 8.45812 13.5 9.30779 13.5C10.1575 13.5 10.8462 14.1716 10.8462 15C10.8462 15.8284 10.1575 16.5 9.30779 16.5ZM7.76932 9C7.76932 9.82843 8.45812 10.5 9.30779 10.5C10.1575 10.5 10.8462 9.82843 10.8462 9C10.8462 8.17157 10.1575 7.5 9.30779 7.5C8.45812 7.5 7.76932 8.17157 7.76932 9ZM9.30779 4.5C8.45812 4.5 7.76932 3.82843 7.76932 3C7.76932 2.17157 8.45812 1.5 9.30779 1.5C10.1575 1.5 10.8462 2.17157 10.8462 3C10.8462 3.82843 10.1575 4.5 9.30779 4.5ZM1.61548 15C1.61548 15.8284 2.30427 16.5 3.15394 16.5C4.00361 16.5 4.6924 15.8284 4.6924 15C4.6924 14.1716 4.00361 13.5 3.15394 13.5C2.30427 13.5 1.61548 14.1716 1.61548 15ZM3.15394 10.5C2.30427 10.5 1.61548 9.82843 1.61548 9C1.61548 8.17157 2.30427 7.5 3.15394 7.5C4.00361 7.5 4.6924 8.17157 4.6924 9C4.6924 9.82843 4.00361 10.5 3.15394 10.5ZM1.61548 3C1.61548 3.82843 2.30427 4.5 3.15394 4.5C4.00361 4.5 4.6924 3.82843 4.6924 3C4.6924 2.17157 4.00361 1.5 3.15394 1.5C2.30427 1.5 1.61548 2.17157 1.61548 3Z" fill="#9BD929"/>
</svg>
