<svg width="24" height="24" viewBox="0 0 18 16" fill="none" xmlns="http://www.w3.org/2000/svg">
<path d="M6.60938 13.5C6.60938 13.6731 6.55164 13.8422 6.44348 13.9861C6.33531 14.13 6.18157 14.2422 6.0017 14.3084C5.82183 14.3746 5.62391 14.3919 5.43296 14.3582C5.24201 14.3244 5.06661 14.2411 4.92894 14.1187C4.79127 13.9963 4.69752 13.8404 4.65954 13.6707C4.62156 13.501 4.64105 13.325 4.71556 13.1652C4.79006 13.0053 4.91623 12.8686 5.07811 12.7725C5.23999 12.6763 5.43031 12.625 5.625 12.625C5.88607 12.625 6.13645 12.7172 6.32106 12.8813C6.50566 13.0454 6.60938 13.2679 6.60938 13.5ZM12.9375 12.625C12.7428 12.625 12.5525 12.6763 12.3906 12.7725C12.2287 12.8686 12.1026 13.0053 12.0281 13.1652C11.9536 13.325 11.9341 13.501 11.972 13.6707C12.01 13.8404 12.1038 13.9963 12.2414 14.1187C12.3791 14.2411 12.5545 14.3244 12.7455 14.3582C12.9364 14.3919 13.1343 14.3746 13.3142 14.3084C13.4941 14.2422 13.6478 14.13 13.756 13.9861C13.8641 13.8422 13.9219 13.6731 13.9219 13.5C13.9219 13.2679 13.8182 13.0454 13.6336 12.8813C13.449 12.7172 13.1986 12.625 12.9375 12.625V12.625ZM15.9961 4.6L14.1398 10.375C14.0459 10.6622 13.85 10.9148 13.5813 11.095C13.3127 11.2752 12.9858 11.3734 12.6492 11.375H5.91328C5.57675 11.3734 5.24979 11.2752 4.98117 11.095C4.71255 10.9148 4.51664 10.6622 4.42266 10.375L2.56641 4.6125V4.59375L1.87734 2.46875C1.87081 2.44175 1.8539 2.41763 1.82952 2.40052C1.80514 2.38341 1.77481 2.37438 1.74375 2.375H0.5625C0.450612 2.375 0.343306 2.33549 0.264189 2.26517C0.185072 2.19484 0.140625 2.09946 0.140625 2C0.140625 1.90054 0.185072 1.80516 0.264189 1.73483C0.343306 1.66451 0.450612 1.625 0.5625 1.625H1.74375C1.95826 1.62568 2.16674 1.68818 2.33789 1.80312C2.50904 1.91807 2.63364 2.07926 2.69297 2.2625L3.29062 4.125H15.5883C15.6538 4.125 15.7184 4.13855 15.7769 4.16459C15.8355 4.19063 15.8865 4.22843 15.9258 4.275C15.9647 4.32078 15.9913 4.37389 16.0035 4.43023C16.0156 4.48658 16.0131 4.54466 15.9961 4.6V4.6ZM15.0328 4.875H3.52969L5.23828 10.1687C5.2796 10.2997 5.36787 10.4152 5.4897 10.4975C5.61152 10.5798 5.76024 10.6246 5.91328 10.625H12.6492C12.8023 10.6246 12.951 10.5798 13.0728 10.4975C13.1946 10.4152 13.2829 10.2997 13.3242 10.1687L15.0328 4.875Z" fill="#9BD929"/>
</svg>
