<svg width="14" height="15" viewBox="0 0 14 15" fill="none" xmlns="http://www.w3.org/2000/svg">
<path d="M5.998 0.384304C6.27332 0.136876 6.63038 0 7.0005 0C7.37062 0 7.72768 0.136876 8.003 0.384304L13.503 5.32755C13.6594 5.46822 13.7844 5.6402 13.8701 5.83234C13.9557 6.02447 14 6.23247 14 6.44284V13.4996C14 13.8975 13.842 14.2792 13.5607 14.5605C13.2794 14.8419 12.8978 15 12.5 15H10C9.60217 15 9.22064 14.8419 8.93934 14.5605C8.65803 14.2792 8.5 13.8975 8.5 13.4996V9.99874C8.5 9.86609 8.44732 9.73888 8.35355 9.64509C8.25979 9.5513 8.13261 9.49861 8 9.49861H6C5.86739 9.49861 5.74021 9.5513 5.64645 9.64509C5.55268 9.73888 5.5 9.86609 5.5 9.99874V13.4996C5.5 13.8975 5.34196 14.2792 5.06066 14.5605C4.77936 14.8419 4.39782 15 4 15H1.5C1.10218 15 0.720644 14.8419 0.43934 14.5605C0.158035 14.2792 0 13.8975 0 13.4996V6.44284C0 6.01773 0.18 5.61263 0.498 5.32755L5.998 0.384304Z" fill="#9BD929"/>
</svg>
