<svg width="22" height="20" viewBox="0 0 22 20" fill="none" xmlns="http://www.w3.org/2000/svg">
<path d="M3.01458 11.7067L3.31454 12.3941L3.31454 12.3941L3.01458 11.7067ZM3.01458 8.29325L3.31454 7.60584L3.31454 7.60584L3.01458 8.29325ZM19.432 11.9017L19.732 11.2143L19.732 11.2143L19.432 11.9017ZM19.432 8.0983L19.1321 7.41089L19.1321 7.41089L19.432 8.0983ZM18.9853 8.29325L19.2852 8.98065L19.2852 8.98065L18.9853 8.29325ZM18.9853 11.7067L18.6853 12.3941L18.6853 12.3941L18.9853 11.7067ZM2.56783 8.0983L2.26787 8.7857L2.26787 8.7857L2.56783 8.0983ZM2.56783 11.9017L2.26787 11.2143L2.26787 11.2143L2.56783 11.9017ZM7.74541 11.945C7.43892 12.2237 7.41633 12.698 7.69496 13.0045C7.97359 13.311 8.44793 13.3336 8.75442 13.0549L7.74541 11.945ZM13.9399 8.34089C14.2464 8.06226 14.269 7.58792 13.9903 7.28143C13.7117 6.97494 13.2374 6.95235 12.9309 7.23098L13.9399 8.34089ZM5.90733 4.08331H16.0925V2.58331H5.90733V4.08331ZM16.0925 15.9166H5.90732V17.4166H16.0925V15.9166ZM19.1321 7.41089L18.6853 7.60584L19.2852 8.98065L19.732 8.7857L19.1321 7.41089ZM18.6853 12.3941L19.1321 12.5891L19.732 11.2143L19.2852 11.0193L18.6853 12.3941ZM2.86778 12.5891L3.31454 12.3941L2.71462 11.0193L2.26787 11.2143L2.86778 12.5891ZM3.31454 7.60584L2.86778 7.41089L2.26787 8.7857L2.71462 8.98065L3.31454 7.60584ZM3.31454 12.3941C4.37174 11.9328 4.94591 10.9838 4.94591 9.99998C4.94591 9.0162 4.37174 8.06716 3.31454 7.60584L2.71462 8.98065C3.23253 9.20665 3.44591 9.62069 3.44591 9.99998C3.44591 10.3793 3.23253 10.7933 2.71462 11.0193L3.31454 12.3941ZM19.1321 12.5891C19.3365 12.6783 19.4166 12.8386 19.4166 12.9629H20.9166C20.9166 12.1818 20.4255 11.5169 19.732 11.2143L19.1321 12.5891ZM19.4166 7.03702C19.4166 7.16133 19.3365 7.32169 19.1321 7.41089L19.732 8.7857C20.4255 8.48307 20.9166 7.81819 20.9166 7.03702H19.4166ZM18.6853 7.60584C17.6281 8.06716 17.0539 9.0162 17.0539 9.99998C17.0539 10.9838 17.6281 11.9328 18.6853 12.3941L19.2852 11.0193C18.7673 10.7933 18.5539 10.3793 18.5539 9.99998C18.5539 9.62069 18.7673 9.20665 19.2852 8.98065L18.6853 7.60584ZM5.90732 15.9166C4.00262 15.9166 2.58325 14.5286 2.58325 12.9629H1.08325C1.08325 15.4883 3.31193 17.4166 5.90732 17.4166V15.9166ZM2.86778 7.41089C2.66337 7.32169 2.58325 7.16133 2.58325 7.03702H1.08325C1.08325 7.81819 1.57434 8.48307 2.26787 8.7857L2.86778 7.41089ZM16.0925 17.4166C18.6879 17.4166 20.9166 15.4883 20.9166 12.9629H19.4166C19.4166 14.5286 17.9972 15.9166 16.0925 15.9166V17.4166ZM2.58325 12.9629C2.58325 12.8386 2.66337 12.6783 2.86778 12.5891L2.26787 11.2143C1.57434 11.5169 1.08325 12.1818 1.08325 12.9629H2.58325ZM16.0925 4.08331C17.9972 4.08331 19.4166 5.4714 19.4166 7.03702H20.9166C20.9166 4.51164 18.6879 2.58331 16.0925 2.58331V4.08331ZM5.90733 2.58331C3.31193 2.58331 1.08325 4.51164 1.08325 7.03702H2.58325C2.58325 5.4714 4.00262 4.08331 5.90733 4.08331V2.58331ZM8.75442 13.0549L13.9399 8.34089L12.9309 7.23098L7.74541 11.945L8.75442 13.0549Z" fill="#9BD929"/>
<path d="M7.33325 7.49996C7.33325 7.9602 7.74366 8.33329 8.24992 8.33329C8.75618 8.33329 9.16659 7.9602 9.16659 7.49996C9.16659 7.03972 8.75618 6.66663 8.24992 6.66663C7.74366 6.66663 7.33325 7.03972 7.33325 7.49996Z" fill="#9BD929"/>
<path d="M12.8333 12.5C12.8333 12.9602 13.2437 13.3333 13.7499 13.3333C14.2562 13.3333 14.6666 12.9602 14.6666 12.5C14.6666 12.0397 14.2562 11.6666 13.7499 11.6666C13.2437 11.6666 12.8333 12.0397 12.8333 12.5Z" fill="#9BD929"/>
</svg>
