<svg width="20" height="16" viewBox="0 0 20 16" fill="none" xmlns="http://www.w3.org/2000/svg">
<path d="M2.01458 9.70671L2.31454 10.3941H2.31454L2.01458 9.70671ZM2.01458 6.29325L2.31454 5.60584H2.31454L2.01458 6.29325ZM18.432 9.90166L18.732 9.21426L18.432 9.90166ZM18.432 6.0983L18.1321 5.41089L18.432 6.0983ZM17.9853 6.29325L18.2852 6.98065L17.9853 6.29325ZM17.9853 9.70671L17.6853 10.3941L17.9853 9.70671ZM1.56783 6.0983L1.26787 6.7857H1.26787L1.56783 6.0983ZM1.56783 9.90166L1.26787 9.21426L1.26787 9.21426L1.56783 9.90166ZM6.74541 9.94503C6.43892 10.2237 6.41633 10.698 6.69496 11.0045C6.97359 11.311 7.44793 11.3336 7.75442 11.0549L6.74541 9.94503ZM12.9399 6.34089C13.2464 6.06226 13.269 5.58792 12.9903 5.28143C12.7117 4.97494 12.2374 4.95235 11.9309 5.23098L12.9399 6.34089ZM4.90733 2.08331H15.0925V0.583313H4.90733V2.08331ZM15.0925 13.9166H4.90732V15.4166H15.0925V13.9166ZM18.1321 5.41089L17.6853 5.60584L18.2852 6.98065L18.732 6.7857L18.1321 5.41089ZM17.6853 10.3941L18.1321 10.5891L18.732 9.21426L18.2852 9.01931L17.6853 10.3941ZM1.86778 10.5891L2.31454 10.3941L1.71462 9.01931L1.26787 9.21426L1.86778 10.5891ZM2.31454 5.60584L1.86778 5.41089L1.26787 6.7857L1.71462 6.98065L2.31454 5.60584ZM2.31454 10.3941C3.37174 9.9328 3.94591 8.98376 3.94591 7.99998C3.94591 7.0162 3.37174 6.06716 2.31454 5.60584L1.71462 6.98065C2.23253 7.20665 2.44591 7.62069 2.44591 7.99998C2.44591 8.37927 2.23253 8.79331 1.71462 9.01931L2.31454 10.3941ZM18.1321 10.5891C18.3365 10.6783 18.4166 10.8386 18.4166 10.9629H19.9166C19.9166 10.1818 19.4255 9.51689 18.732 9.21426L18.1321 10.5891ZM18.4166 5.03702C18.4166 5.16133 18.3365 5.32169 18.1321 5.41089L18.732 6.7857C19.4255 6.48307 19.9166 5.81819 19.9166 5.03702H18.4166ZM17.6853 5.60584C16.6281 6.06716 16.0539 7.0162 16.0539 7.99998C16.0539 8.98376 16.6281 9.9328 17.6853 10.3941L18.2852 9.01931C17.7673 8.79331 17.5539 8.37927 17.5539 7.99998C17.5539 7.62069 17.7673 7.20665 18.2852 6.98065L17.6853 5.60584ZM4.90732 13.9166C3.00262 13.9166 1.58325 12.5286 1.58325 10.9629H0.083252C0.083252 13.4883 2.31193 15.4166 4.90732 15.4166V13.9166ZM1.86778 5.41089C1.66337 5.32169 1.58325 5.16133 1.58325 5.03702H0.083252C0.083252 5.81819 0.574339 6.48307 1.26787 6.7857L1.86778 5.41089ZM15.0925 15.4166C17.6879 15.4166 19.9166 13.4883 19.9166 10.9629H18.4166C18.4166 12.5286 16.9972 13.9166 15.0925 13.9166V15.4166ZM1.58325 10.9629C1.58325 10.8386 1.66337 10.6783 1.86778 10.5891L1.26787 9.21426C0.57434 9.51689 0.083252 10.1818 0.083252 10.9629H1.58325ZM15.0925 2.08331C16.9972 2.08331 18.4166 3.4714 18.4166 5.03702H19.9166C19.9166 2.51164 17.6879 0.583313 15.0925 0.583313V2.08331ZM4.90733 0.583313C2.31193 0.583313 0.083252 2.51164 0.083252 5.03702H1.58325C1.58325 3.4714 3.00262 2.08331 4.90733 2.08331V0.583313ZM7.75442 11.0549L12.9399 6.34089L11.9309 5.23098L6.74541 9.94503L7.75442 11.0549Z" fill="#2D264B"/>
<path d="M6.33325 5.49996C6.33325 5.9602 6.74366 6.33329 7.24992 6.33329C7.75618 6.33329 8.16659 5.9602 8.16659 5.49996C8.16659 5.03972 7.75618 4.66663 7.24992 4.66663C6.74366 4.66663 6.33325 5.03972 6.33325 5.49996Z" fill="#2D264B"/>
<path d="M11.8333 10.5C11.8333 10.9602 12.2437 11.3333 12.7499 11.3333C13.2562 11.3333 13.6666 10.9602 13.6666 10.5C13.6666 10.0397 13.2562 9.66663 12.7499 9.66663C12.2437 9.66663 11.8333 10.0397 11.8333 10.5Z" fill="#2D264B"/>
</svg>
