<svg width="23" height="22" viewBox="0 0 23 22" fill="none" xmlns="http://www.w3.org/2000/svg">
<path fill-rule="evenodd" clip-rule="evenodd" d="M1.82469 2.90459C0.663086 4.43797 0.663086 6.62531 0.663086 11C0.663086 15.3747 0.663086 17.562 1.82469 19.0954C2.19984 19.5906 2.65392 20.0261 3.17027 20.3859C4.76907 21.5 7.04975 21.5 11.6111 21.5C16.1724 21.5 18.4531 21.5 20.0519 20.3859C20.5683 20.0261 21.0223 19.5906 21.3975 19.0954C22.5591 17.562 22.5591 15.3747 22.5591 11C22.5591 6.62531 22.5591 4.43797 21.3975 2.90459C21.0223 2.40937 20.5683 1.97387 20.0519 1.61407C18.4531 0.5 16.1724 0.5 11.6111 0.5C7.04975 0.5 4.76907 0.5 3.17027 1.61407C2.65392 1.97387 2.19984 2.40937 1.82469 2.90459ZM18.3413 9.28262C18.696 8.93939 18.6934 8.38538 18.3355 8.04519C17.9777 7.70501 17.4 7.70748 17.0453 8.05071L14.9198 10.1075C14.0572 10.9423 13.4635 11.5149 12.9605 11.9023C12.4718 12.2787 12.158 12.4078 11.8769 12.4422C11.7004 12.4637 11.5218 12.4637 11.3453 12.4422C11.0642 12.4078 10.7503 12.2787 10.2617 11.9023C9.75866 11.5149 9.16498 10.9423 8.30236 10.1075L6.17685 8.05072C5.82216 7.70749 5.24451 7.70501 4.88663 8.04519C4.52876 8.38538 4.52618 8.93939 4.88087 9.28262L7.04467 11.3765C7.85961 12.1651 8.52569 12.8097 9.11915 13.2668C9.73628 13.7421 10.3627 14.0862 11.1146 14.1781C11.4443 14.2184 11.7779 14.2184 12.1076 14.1781C12.8595 14.0862 13.4859 13.7421 14.103 13.2668C14.6965 12.8097 15.3625 12.1651 16.1775 11.3765L18.3413 9.28262Z" fill="black"/>
</svg>
