<svg width="277" height="365" viewBox="0 0 277 365" fill="none" xmlns="http://www.w3.org/2000/svg">
<g clip-path="url(#clip0_410_7592)">
<path d="M192.394 11.7684C186.184 7.29673 179.328 5.43256 174.075 6.30174L171.304 4.31177L167.698 9.13802C163.458 15.3481 167.876 26.0414 177.57 33.0291C187.263 40.0169 198.549 40.6459 202.789 34.4358L206.395 29.6096L203.624 27.6196C202.633 22.2558 198.593 16.263 192.383 11.7799L192.394 11.7684Z" fill="#F7AC41"/>
<path d="M206.435 29.5833C210.675 23.3732 206.255 12.6753 196.564 5.68896C186.872 -1.29737 175.579 -1.92659 171.339 4.28357C167.1 10.4937 171.52 21.1916 181.211 28.178C190.903 35.1643 202.196 35.7935 206.435 29.5833Z" fill="#FFD766"/>
<path d="M205.516 25.2179C205.304 25.9269 204.993 26.5903 204.581 27.185C202.878 29.6896 199.673 30.8561 195.555 30.4787C191.537 30.1127 187.108 28.3172 183.079 25.4123C179.05 22.5074 175.889 18.8362 174.186 15.085C172.439 11.2423 172.417 7.7427 174.131 5.23808C175.833 2.73346 179.039 1.56692 183.157 1.94433C187.174 2.3103 191.604 4.10585 195.633 7.01076C199.662 9.91566 202.822 13.5868 204.525 17.338C205.849 20.2544 206.183 22.9763 205.516 25.2064V25.2179ZM174.153 7.51397C173.563 9.50394 173.875 11.9743 175.088 14.6619C176.724 18.2644 179.762 21.7869 183.646 24.5889C191.593 30.3186 200.63 31.2221 203.779 26.6131C206.929 22.0042 203.023 13.5868 195.076 7.85707C187.13 2.12731 178.093 1.22382 174.943 5.83278C174.598 6.34743 174.331 6.90783 174.153 7.51397Z" fill="#F7AC41"/>
<path d="M197.525 22.3473L195.277 20.7233C194.609 21.6496 193.541 22.3358 192.595 22.5074L191.371 21.0435C192.305 20.8376 193.307 20.3001 193.93 19.3852C194.72 18.2301 194.342 16.7891 193.073 15.8741C191.849 14.9935 190.658 15.0736 189.167 15.8055C187.141 16.8234 185.416 17.1093 183.48 15.714C181.632 14.3759 180.876 12.4088 181.566 10.6705L179.317 9.04646L180.007 8.04004L182.167 9.59542C182.879 8.64618 183.691 8.23446 184.392 8.04004L185.583 9.50393C185.082 9.6526 184.136 9.96139 183.424 11.0136C182.567 12.2716 183.268 13.4839 184.159 14.1243C185.316 14.9592 186.307 14.7762 188.076 13.9413C190.157 12.9349 191.894 12.9235 193.875 14.3531C195.633 15.6225 196.679 17.704 195.911 19.6597L198.226 21.3294L197.525 22.3587V22.3473Z" fill="#F7AC41"/>
<path d="M179.473 19.145C179.239 19.145 179.016 19.0421 178.872 18.8362C178.727 18.6303 175.21 13.7583 174.899 10.2587C174.565 6.57613 177.325 4.15157 177.447 4.04864C177.77 3.77416 178.237 3.8199 178.505 4.14013C178.772 4.47179 178.727 4.95213 178.416 5.22661C178.371 5.26092 176.145 7.25089 176.401 10.0986C176.679 13.1751 180.052 17.8526 180.085 17.8984C180.33 18.2415 180.263 18.7218 179.929 18.9849C179.796 19.0878 179.64 19.1335 179.484 19.1335L179.473 19.145Z" fill="white"/>
<path d="M192.706 45.0147C188.076 44.2141 183.469 44.1226 179.128 42.0983C177.269 41.2291 175.656 40.1198 174.131 38.7588C172.729 37.5008 171.26 36.2085 170.97 34.2185C170.703 32.3543 167.943 33.1434 168.21 34.9962C168.511 37.0891 169.868 38.7474 171.337 40.1312C173.018 41.7209 174.788 43.1505 176.824 44.2141C178.972 45.3235 181.276 46.2041 183.647 46.6844C186.384 47.2448 189.189 47.3706 191.949 47.851C193.752 48.1597 194.52 45.3349 192.706 45.0147Z" fill="#F7AC41"/>
<path d="M251.213 57.8352C258.425 50.7444 262.532 42.1212 262.788 34.939L266.004 31.7825L260.873 25.7554C254.162 18.5389 239.594 21.6611 228.331 32.7203C217.068 43.7795 213.384 58.6014 220.095 65.8179L225.226 71.845L228.442 68.6885C235.432 68.7457 244.012 64.9259 251.224 57.8466L251.213 57.8352Z" fill="#F7AC41"/>
<path d="M257.791 64.9087C269.055 53.8445 272.745 39.0272 266.034 31.8134C259.323 24.5996 244.753 27.721 233.489 38.7852C222.226 49.8495 218.536 64.6668 225.247 71.8806C231.958 79.0944 246.528 75.973 257.791 64.9087Z" fill="#FFD766"/>
<path d="M230.946 71.7878C230.112 71.3304 229.355 70.7471 228.709 70.0495C226.005 67.1446 225.359 62.5928 226.884 57.229C228.375 51.991 231.77 46.5815 236.455 41.984C241.141 37.3864 246.55 34.1384 251.714 32.8461C257 31.5195 261.396 32.3886 264.101 35.2935C266.805 38.1984 267.451 42.7502 265.926 48.114C264.435 53.352 261.04 58.7615 256.355 63.359C251.669 67.9566 246.26 71.2046 241.096 72.4969C237.09 73.5033 233.584 73.2403 230.946 71.7878ZM261.24 34.7217C258.892 33.4294 255.709 33.2121 252.014 34.1384C247.073 35.3736 241.864 38.5072 237.346 42.9446C228.108 52.0139 224.647 63.7708 229.644 69.1231C234.63 74.4869 246.205 71.4676 255.442 62.3869C264.679 53.3177 268.141 41.5723 263.144 36.2085C262.587 35.6138 261.953 35.122 261.229 34.7217H261.24Z" fill="#F7AC41"/>
<path d="M236.6 61.9294L239.215 59.3561C238.225 58.2353 237.635 56.6342 237.657 55.3419L239.816 54.0953C239.828 55.3876 240.25 56.8515 241.241 57.9151C242.487 59.2532 244.402 59.1274 245.871 57.6749C247.295 56.2797 247.485 54.6671 246.961 52.5056C246.205 49.5549 246.283 47.199 248.542 44.9803C250.69 42.8645 253.361 42.3842 255.375 43.7451L257.991 41.1719L259.081 42.3498L256.566 44.8202C257.568 46.0096 257.879 47.1875 257.946 48.1711L255.798 49.3834C255.743 48.6857 255.587 47.3477 254.463 46.1354C253.105 44.6829 251.402 45.3005 250.367 46.3184C249.02 47.645 248.998 49.006 249.599 51.5678C250.323 54.587 249.889 56.8972 247.585 59.1617C245.537 61.1745 242.654 62.0209 240.395 60.4998L237.702 63.1416L236.589 61.9522L236.6 61.9294Z" fill="#F7AC41"/>
<path d="M245.259 38.7932C245.314 38.4844 245.515 38.2099 245.804 38.0727C246.105 37.924 253.127 34.5273 257.601 35.0077C262.32 35.5109 264.646 39.7996 264.746 39.9826C265.013 40.4744 264.835 41.092 264.357 41.3664C263.878 41.6409 263.277 41.4579 263.01 40.9662C262.977 40.8975 261.051 37.4322 257.401 37.0434C253.472 36.6202 246.728 39.8911 246.661 39.9254C246.171 40.1656 245.57 39.9483 245.337 39.4451C245.236 39.2392 245.214 39.0219 245.259 38.8046V38.7932Z" fill="white"/>
<path opacity="0.52" d="M260.94 325.83C260.94 326.985 198.081 327.923 172.517 327.923C146.953 327.923 10.1055 326.985 10.1055 325.83C10.1055 324.675 146.953 323.737 172.517 323.737C198.081 323.737 260.94 324.675 260.94 325.83Z" fill="#97AACC"/>
<path d="M36.8828 48.6973H41.6351C51.8519 48.6973 166.374 57.2061 166.374 67.7049V307.016C166.374 317.515 158.093 326.024 147.876 326.024H36.8828C26.666 326.024 18.3857 317.515 18.3857 307.016V67.7164C18.3857 57.2176 26.666 48.7087 36.8828 48.7087V48.6973Z" fill="#54678C"/>
<path d="M154.376 48.6973H43.3711C33.1555 48.6973 24.874 57.2073 24.874 67.7049V307.016C24.874 317.514 33.1555 326.024 43.3711 326.024H154.376C164.592 326.024 172.873 317.514 172.873 307.016V67.7049C172.873 57.2073 164.592 48.6973 154.376 48.6973Z" fill="white"/>
<path d="M43.9945 51.3848H153.53C162.601 51.3848 169.946 58.9329 169.946 68.2538V306.605C169.946 315.983 162.545 323.577 153.43 323.577H45.2966C35.5139 323.577 27.5786 315.422 27.5786 305.369V68.2538C27.5786 58.9329 34.924 51.3848 43.9945 51.3848Z" fill="#5CBEC6"/>
<path d="M82.7249 60.4084L116.024 60.4084C116.602 60.4084 117.07 59.9271 117.07 59.3334V58.7844C117.07 58.1907 116.602 57.7094 116.024 57.7094L82.7249 57.7094C82.1472 57.7094 81.6788 58.1907 81.6788 58.7844V59.3334C81.6788 59.9271 82.1472 60.4084 82.7249 60.4084Z" fill="#434A59"/>
<path d="M120.532 59.0702C120.532 59.8136 121.122 60.4197 121.845 60.4197C122.568 60.4197 123.158 59.8136 123.158 59.0702C123.158 58.3268 122.568 57.7207 121.845 57.7207C121.122 57.7207 120.532 58.3268 120.532 59.0702Z" fill="#434A59"/>
<path d="M76.4033 59.0702C76.4033 59.8136 76.9932 60.4197 77.7166 60.4197C78.44 60.4197 79.0299 59.8136 79.0299 59.0702C79.0299 58.3268 78.44 57.7207 77.7166 57.7207C76.9932 57.7207 76.4033 58.3268 76.4033 59.0702Z" fill="#434A59"/>
<path d="M169.957 68.2538C169.957 66.3096 169.635 64.4454 169.045 62.707C157.114 75.5275 140.698 93.3 136.981 98.1263C130.982 105.903 80.7328 126.375 72.408 137.148C66.988 144.147 44.3285 167.592 27.5898 184.061V280.804C43.8388 270.922 67.5778 255.906 76.4146 247.443C90.3709 234.062 104.772 205.573 116.647 197.419C128.523 189.265 159.896 174.477 166.396 169.491C167.297 168.793 168.522 167.261 169.968 165.145V68.2538H169.957Z" fill="#6BD6D6"/>
<path d="M107.054 303.322C107.054 306.204 104.772 308.549 101.967 308.549C99.1629 308.549 96.8813 306.204 96.8813 303.322C96.8813 300.44 99.1629 298.096 101.967 298.096C104.772 298.096 107.054 300.44 107.054 303.322Z" fill="#EAEAEA"/>
<path d="M76.9488 300.795H89.1689C89.6141 300.795 89.9702 300.429 89.9702 299.971C89.9702 299.514 89.6141 299.148 89.1689 299.148H76.9488C76.5036 299.148 76.1475 299.514 76.1475 299.971C76.1475 300.429 76.5036 300.795 76.9488 300.795Z" fill="#EAEAEA"/>
<path d="M89.1576 302.499H76.9375C76.4924 302.499 76.1362 302.865 76.1362 303.322C76.1362 303.78 76.4924 304.146 76.9375 304.146H89.1576C89.6028 304.146 89.959 303.78 89.959 303.322C89.959 302.865 89.6028 302.499 89.1576 302.499Z" fill="#EAEAEA"/>
<path d="M89.1576 305.85H76.9375C76.4924 305.85 76.1362 306.216 76.1362 306.673C76.1362 307.131 76.4924 307.497 76.9375 307.497H89.1576C89.6028 307.497 89.959 307.131 89.959 306.673C89.959 306.216 89.6028 305.85 89.1576 305.85Z" fill="#EAEAEA"/>
<path d="M114.878 299.148V307.485C114.878 307.92 115.368 308.171 115.702 307.92L121.188 303.757C121.467 303.54 121.467 303.116 121.188 302.899L115.702 298.736C115.356 298.473 114.878 298.736 114.878 299.171V299.148Z" fill="#EAEAEA"/>
<path d="M119.04 177.771V118.369C119.04 115.201 116.536 112.628 113.453 112.628H90.1039C87.0211 112.628 84.517 115.201 84.517 118.369V177.771H73.0982C70.5495 177.771 69.0805 180.733 70.5607 182.86L99.2412 223.769C100.488 225.542 103.059 225.542 104.305 223.769L132.986 182.86C134.477 180.733 132.997 177.771 130.448 177.771H119.029H119.04Z" fill="#FFE164"/>
<path d="M184.771 322.456C186.329 322.696 187.186 324.034 187.342 324.606C187.531 325.303 189.278 324.846 190.447 324.103C191.615 323.359 191.871 322.307 192.951 320.866C193.619 319.974 194.309 319.654 194.743 319.539C194.91 320.191 195.088 320.774 195.277 321.129C196.012 322.501 195.8 324.88 194.631 325.303C193.452 325.738 183.146 327.431 180.909 326.424C179.551 325.818 182.289 324.114 184.782 322.456H184.771Z" fill="#434A59"/>
<path d="M192.951 320.866C191.872 322.307 191.616 323.359 190.447 324.103C189.278 324.846 187.531 325.303 187.342 324.606C187.186 324.034 186.34 322.696 184.771 322.456C186.407 321.381 187.932 320.317 188.154 319.608C188.711 317.812 188.644 315.136 189.345 314.599C190.046 314.061 193.775 313.947 193.975 315.285C193.975 315.285 194.276 317.71 194.732 319.528C194.298 319.642 193.608 319.963 192.94 320.855L192.951 320.866Z" fill="#FF867A"/>
<path d="M238.514 321.198C236.979 321.586 236.255 323.005 236.155 323.588C236.033 324.297 234.241 324.011 233.017 323.382C231.792 322.753 231.436 321.724 230.234 320.397C229.489 319.574 228.776 319.322 228.331 319.242C228.231 319.905 228.097 320.5 227.942 320.877C227.329 322.307 227.763 324.663 228.965 324.972C230.179 325.292 240.585 325.978 242.733 324.766C244.024 324.022 241.152 322.593 238.514 321.198Z" fill="#434A59"/>
<path d="M230.234 320.397C231.436 321.724 231.792 322.753 233.017 323.382C234.241 324.011 236.033 324.297 236.155 323.588C236.255 323.005 236.979 321.587 238.514 321.198C236.789 320.283 235.176 319.379 234.886 318.693C234.163 316.955 233.985 314.29 233.239 313.821C232.493 313.352 228.765 313.604 228.698 314.953C228.698 314.953 228.62 317.389 228.331 319.253C228.776 319.322 229.489 319.585 230.234 320.409V320.397Z" fill="#FF867A"/>
<path d="M196.813 135.684C196.813 135.684 197.325 134.403 199.106 134.186C200.897 133.957 202.801 135.375 203.847 136.908C204.893 138.44 203.591 145.28 200.408 145.108C197.225 144.936 196.891 136.199 196.802 135.684H196.813Z" fill="#434A59"/>
<path d="M162.245 169.113C164.715 169.399 167.52 169.537 170.302 169.457C174.954 169.308 179.54 168.507 182.422 166.62C182.867 166.334 183.279 166.014 183.669 165.682C188.388 161.565 188.777 154.383 190.135 150.712L160.486 156.465C160.486 156.465 129.647 135.959 127.02 138.475C124.405 140.991 147.153 167.386 162.245 169.125V169.113Z" fill="#F27C79"/>
<path d="M165.394 154.818L167.843 170.234C167.843 170.234 176.613 170.234 181.12 167.981C185.628 165.728 193.452 155.092 193.452 153.468C193.452 151.856 192.316 149.866 192.316 149.866L165.383 154.818H165.394Z" fill="#C94376"/>
<path d="M206.529 171.721C205.928 161.565 210.814 157.185 206.028 152.816C201.877 149.019 200.708 149.179 196.512 149.076C192.984 148.996 185.761 152.164 183.535 155.206C176.446 164.928 180.753 164.596 179.64 178.903C179.507 180.619 179.284 182.54 178.995 184.507C178.672 187.321 178.483 190.443 178.026 193.05C188.087 195.509 205.36 198.254 210.802 197.35C210.58 196.493 206.596 172.945 206.518 171.71L206.529 171.721Z" fill="#F95873"/>
<path d="M180.33 256.306C180.519 257.804 181.933 268.269 182.511 272.169C184.203 283.64 186.362 315.182 186.362 315.182C186.362 315.182 189.033 316.875 193.63 316.852C201.242 316.817 204.837 315.182 204.837 315.182C204.837 315.182 200.753 264.815 200.463 261.316C199.027 243.749 197.592 226.217 197.414 223.803L223.879 315.193C223.879 315.193 226.339 316.474 231.67 316.52C236.656 316.554 239.027 315.193 239.027 315.193C239.027 315.193 237.346 307.439 236.79 304.855L233.451 289.438L231.759 281.638L229.555 271.426C222.065 230.688 213.329 205.596 209.923 194.548C208.51 194.789 206.339 194.972 203.735 195.063C203.412 195.063 203.079 195.086 202.734 195.097C195.433 195.28 185.205 194.8 177.982 193.05C177.826 194.686 177.069 198.311 176.858 199.546C175.967 204.944 176.19 219.56 176.913 226.239C177.726 233.822 178.772 244.115 180.33 256.341V256.306Z" fill="#434A59"/>
<path d="M192.995 209.347C194.342 212.31 195.188 215.455 196.122 218.577C196.579 220.098 197.024 221.665 197.692 223.094C198.304 224.41 199.005 225.702 199.027 227.2C199.038 227.989 197.848 227.989 197.836 227.2C197.814 225.748 196.991 224.501 196.434 223.209C195.833 221.825 195.41 220.35 194.965 218.897C194.064 215.889 193.251 212.824 191.96 209.965C191.637 209.256 192.661 208.638 192.984 209.347H192.995Z" fill="#392F42"/>
<path d="M189.734 211.681C191.014 213.064 192.583 214.883 194.431 215.398C195.165 215.603 194.854 216.781 194.119 216.576C192.049 216.004 190.324 214.082 188.888 212.538C188.365 211.967 189.2 211.097 189.734 211.669V211.681Z" fill="#392F42"/>
<path d="M160.041 155.664C161.098 156.27 162.067 157.036 163.113 157.665C163.48 157.883 163.146 158.477 162.779 158.249C161.733 157.62 160.764 156.865 159.707 156.247C159.34 156.03 159.674 155.447 160.041 155.664Z" fill="#C66C67"/>
<path d="M200.296 143.221L200.864 149.957C200.941 151.17 198.17 154.452 196.211 153.011C195.644 152.588 196.278 150.884 196.723 149.591L197.814 144.365L200.296 143.21V143.221Z" fill="#FF867A"/>
<path d="M200.285 139.035C200.285 139.035 200.641 140.911 200.552 142.283C200.418 144.296 199.072 145.177 197.102 145.314C195.188 145.451 194.553 144.994 194.208 143.61C194.119 143.267 194.052 142.764 194.075 142.295C194.119 141.528 194.486 140.248 195.065 139.436C195.332 139.07 195.533 138.463 195.677 138.166C196.801 136.016 199.561 136.199 200.285 139.047V139.035Z" fill="#FF867A"/>
<path d="M200.774 140.751C200.886 140.533 200.964 140.305 201.019 140.076C201.142 139.63 201.42 139.001 201.976 139.504C202.789 140.248 202.021 142.581 200.897 142.455C200.062 142.363 200.496 141.3 200.763 140.751H200.774Z" fill="#FF867A"/>
<path d="M199.439 144.17C199.584 144.491 198.871 147.144 197.124 147.681L197.413 145.909C197.458 145.634 197.369 145.303 197.102 145.314C195.532 145.428 194.82 145.142 194.431 144.273C194.787 144.456 195.622 144.822 196.523 144.788C197.725 144.754 199.294 143.827 199.45 144.17H199.439Z" fill="#C66C67"/>
<path d="M197.391 141.963C196.467 142.032 195.41 141.792 195.02 141.586C194.887 141.517 194.72 141.609 194.709 141.757C194.553 144.513 196.99 143.393 197.536 142.283C197.614 142.123 197.569 141.952 197.391 141.963Z" fill="white"/>
<path d="M198.983 138.955C198.56 138.589 198.193 138.315 197.603 138.418C197.436 138.452 197.425 138.658 197.636 138.715C198.215 138.875 198.393 138.909 198.86 139.207C199.072 139.344 199.217 139.161 198.972 138.944L198.983 138.955Z" fill="#434A59"/>
<path d="M195.199 138.372C195.432 138.212 195.722 138.235 195.967 138.258C196.133 138.281 196.222 138.452 196.011 138.509C195.432 138.669 195.443 138.601 195.176 138.715C194.987 138.795 194.931 138.555 195.199 138.372Z" fill="#434A59"/>
<path d="M132.874 140.373C129.769 138.761 128.356 136.839 127.165 135.764C125.05 133.866 121.389 131.178 120.765 131.864C120.309 132.356 123.459 134.209 123.459 134.209C123.459 134.209 121.99 136.165 122.502 137.491C123.014 138.818 127.732 143.152 129.702 142.615C131.672 142.077 134.878 141.414 132.885 140.373H132.874Z" fill="#F27C79"/>
<path d="M205.36 153.605C206.862 153.011 235.432 162.64 240.239 184.05C243.868 200.221 215.833 214.048 213.785 210.789C209.912 204.636 227.307 194.583 227.797 186.166C228.286 177.76 194.431 157.917 205.371 153.594L205.36 153.605Z" fill="#FF867A"/>
<path d="M211.548 207.335C209.99 207.186 208.176 206.065 208.566 207.312C208.966 208.558 210.591 208.593 210.947 209.439C211.303 210.285 206.763 213.19 207.475 213.899C207.942 214.368 210.079 212.218 210.157 212.401C210.235 212.584 207.92 214.483 208.532 215.054C209.278 215.741 210.458 215.901 211.582 215.352C211.37 215.695 211.237 216.015 211.392 216.175C211.804 216.621 219.328 210.205 215.176 207.872C214.275 207.369 213.963 207.575 211.559 207.346L211.548 207.335Z" fill="#FF867A"/>
<path d="M218.126 174.912L226.15 163.784C226.15 163.784 215.699 154.131 203.869 150.986C203.869 150.986 202.622 151.581 202.389 155.618C201.966 162.949 213.563 171.973 218.115 174.912H218.126Z" fill="#F95873"/>
<path d="M196.812 135.684C196.812 135.684 195.644 137.183 195.566 137.503C195.488 137.823 199.773 138.521 200.285 139.047C200.797 139.573 200.763 138.555 200.686 138.075C200.608 137.594 199.439 134.072 196.824 135.696L196.812 135.684Z" fill="#434A59"/>
<path d="M202.043 135.673C202.043 135.673 204.67 133.191 207.163 134.575C209.645 135.959 209.099 141.78 209.778 142.855C210.457 143.93 212.594 142.02 214.731 143.667C216.868 145.314 216 148.871 213.184 150.06C210.368 151.25 207.753 150.083 206.773 149.111C205.794 148.139 205.137 147.613 204.859 144.799C204.77 143.93 204.247 139.07 203.423 138.555C202.6 138.04 201.487 136.107 202.043 135.661V135.673Z" fill="#434A59"/>
<path d="M228.888 190.466C228.031 190.466 227.307 189.791 227.229 188.91C227.007 186.429 225.905 184.382 225.894 184.37C225.438 183.547 225.727 182.494 226.528 182.037C227.33 181.568 228.342 181.854 228.799 182.677C228.854 182.78 230.268 185.354 230.557 188.602C230.635 189.551 229.967 190.374 229.044 190.466C228.988 190.466 228.943 190.466 228.888 190.466Z" fill="#C66C67"/>
<path d="M184.86 153.388C183.179 155.721 180.775 157.643 179.863 160.479C178.984 163.166 178.928 166.369 179.751 169.079C179.929 169.674 180.831 169.422 180.653 168.828C179.84 166.151 179.918 162.881 180.931 160.262C181.877 157.814 184.17 155.973 185.672 153.88C186.028 153.377 185.216 152.896 184.86 153.4V153.388Z" fill="#FFE164"/>
<path d="M141.255 156.453C139.262 154.578 137.048 152.885 135.144 150.941C133.33 149.088 131.817 146.995 130.314 144.856C129.302 143.415 128.556 142.066 127.076 141.037C125.25 139.767 121.823 137.24 123.47 134.586C123.792 134.06 122.98 133.58 122.657 134.106C121.288 136.325 122.579 138.086 124.004 139.756C124.839 140.739 125.896 141.277 126.886 142.054C127.888 142.855 128.489 143.838 129.168 144.902C130.426 146.892 131.928 148.962 133.564 150.643C135.79 152.931 138.261 154.932 140.587 157.128C141.032 157.551 141.689 156.865 141.255 156.453Z" fill="#FFE164"/>
<path d="M208.988 166.003C208.209 165.156 207.263 164.596 206.329 163.967C205.216 163.224 204.181 162.366 203.09 161.611C202.645 161.302 201.999 161.817 202.177 162.332C202.188 162.366 202.2 162.4 202.211 162.434C202.289 162.686 202.478 162.823 202.667 162.858C203.591 163.51 204.481 164.219 205.405 164.87C206.34 165.522 207.319 166.06 208.109 166.906C208.666 167.512 209.545 166.597 208.988 166.003Z" fill="#C94376"/>
<path d="M180.442 171.206C180.419 171.001 180.319 170.783 180.097 170.737C180.063 170.737 180.03 170.726 179.996 170.715C179.496 170.612 179.24 171.275 179.54 171.538C179.729 173.62 179.217 175.907 179.028 177.954C178.872 179.624 178.772 181.305 178.639 182.986C178.327 186.92 178.015 191.22 176.88 194.995C176.702 195.589 177.604 195.841 177.782 195.246C178.917 191.461 179.151 187.332 179.54 183.409C179.729 181.534 179.829 179.647 179.996 177.771C180.186 175.655 180.709 173.299 180.442 171.183V171.206Z" fill="#FFE164"/>
<path d="M184.76 150.643C180.876 150.963 176.914 151.993 173.118 152.839C171.204 153.274 169.268 153.605 167.353 154.063C165.395 154.532 163.503 155.458 161.51 155.778C160.921 155.881 161.165 156.808 161.755 156.705C163.558 156.407 165.283 155.607 167.042 155.126C168.923 154.612 170.87 154.326 172.773 153.891C176.68 153.022 180.753 151.924 184.749 151.592C185.35 151.547 185.35 150.575 184.749 150.632L184.76 150.643Z" fill="#FFE164"/>
<path d="M12.1643 348.062C12.1643 348.062 0.912481 348.554 0.0443866 351.928C-0.823708 355.302 10.3057 359.35 19.2204 360.86C28.1239 362.381 49.5703 366.75 66.5872 364.234C83.604 361.706 95.6572 358.962 96.2137 355.782C96.7701 352.614 93.2421 349.24 86.7537 349.664C80.2652 350.087 12.1754 348.062 12.1754 348.062H12.1643Z" fill="#76B1B2"/>
<path d="M82.8586 339.508L82.7028 350.315C82.6026 351.894 81.5564 353.38 79.7312 354.753C78.763 355.485 77.561 356.171 76.1809 356.823C74.6562 357.532 72.8866 358.195 70.9167 358.79C69.826 359.122 68.6574 359.43 67.4443 359.728C60.7444 361.317 52.3306 362.232 43.2601 362.164C21.9028 362.004 4.91929 356.434 5.3422 349.721L5.49801 338.913C5.49801 338.913 30.8397 341.818 44.5289 341.932C53.8553 342.001 68.2568 340.857 76.4926 340.114C77.4163 340.034 78.2621 339.954 79.0078 339.885C81.4006 339.656 82.8586 339.508 82.8586 339.508Z" fill="#F7AC41"/>
<path d="M82.8697 339.393C82.4468 346.095 64.7956 351.402 43.4271 351.242C42.0693 351.242 40.7338 351.196 39.4094 351.139C35.1468 350.967 31.1068 350.578 27.4007 350.018C14.1901 348.005 5.19754 343.705 5.49803 338.799C5.92095 332.097 23.5722 326.79 44.9407 326.95C51.3735 326.996 57.4168 327.534 62.7032 328.46C62.9815 328.506 63.2597 328.563 63.5379 328.609C65.2519 328.917 66.8768 329.272 68.4126 329.661C69.8594 330.027 71.2172 330.427 72.486 330.862C79.0968 333.103 83.0701 336.111 82.8586 339.393H82.8697Z" fill="#FFD766"/>
<path d="M72.4861 330.85C61.5125 337.701 50.4499 344.414 39.4095 351.139C35.1469 350.967 31.107 350.578 27.4009 350.018C39.1647 342.847 50.973 335.711 62.7034 328.46C62.9816 328.506 63.2599 328.563 63.5381 328.609C65.252 328.917 66.8769 329.272 68.4128 329.661C69.8596 330.027 71.2174 330.427 72.4861 330.862V330.85Z" fill="white"/>
<path d="M78.2508 339.359C77.8836 345.157 62.3135 349.766 43.5271 349.618C24.7406 349.469 9.76043 344.631 10.1166 338.833C10.4838 333.035 26.0539 328.426 44.8403 328.574C63.6268 328.723 78.607 333.561 78.2508 339.359ZM12.2423 338.856C11.9084 344.243 25.9537 348.749 43.5716 348.886C61.1783 349.023 75.7801 344.746 76.1251 339.359C76.459 333.972 62.4137 329.466 44.7958 329.329C27.1891 329.192 12.5873 333.469 12.2423 338.856Z" fill="#FFBB4D"/>
<path d="M42.9486 346.839V344.929C40.8451 344.906 38.6638 344.574 37.395 344.094L38.2631 342.824C39.5653 343.282 41.4573 343.636 43.4828 343.636C46.0537 343.636 47.801 342.859 47.801 341.784C47.801 340.709 46.3876 340.102 43.7054 339.531C39.9993 338.776 37.7178 337.907 37.7178 336.26C37.7178 334.613 39.8546 333.503 43.1934 333.218V331.308H45.4416V333.137C47.623 333.172 49.1032 333.481 50.1605 333.801L49.2478 335.047C48.491 334.819 46.9997 334.407 44.6737 334.407C41.8802 334.407 40.8229 335.276 40.8229 336.031C40.8229 337.015 42.1695 337.506 45.3192 338.181C49.0586 338.97 50.9395 339.954 50.9395 341.635C50.9395 343.122 48.9474 344.528 45.2079 344.849V346.816H42.9263L42.9486 346.839Z" fill="#E8AB4F"/>
<path d="M96.2692 327.259L96.1134 338.067C96.0132 339.645 94.9671 341.132 93.1419 342.504C92.1736 343.236 90.9716 343.922 89.5916 344.574C88.0668 345.283 86.2973 345.947 84.3274 346.541C83.2367 346.873 82.0681 347.182 80.855 347.479C74.1551 349.069 65.7412 349.984 56.6708 349.915C35.3134 349.755 18.3299 344.185 18.7528 337.472L18.9087 326.665C18.9087 326.665 44.2503 329.569 57.9395 329.684C67.266 329.752 81.6674 328.609 89.9032 327.865C90.8269 327.785 91.6728 327.705 92.4184 327.637C94.8113 327.408 96.2692 327.259 96.2692 327.259Z" fill="#F7AC41"/>
<path d="M96.2691 327.145C95.8462 333.847 78.195 339.153 56.8265 338.993C55.4687 338.993 54.1332 338.947 52.8088 338.89C48.5462 338.719 44.5062 338.33 40.8001 337.769C27.5895 335.757 18.597 331.456 18.8974 326.55C19.3204 319.848 36.9716 314.542 58.3401 314.702C64.7729 314.748 70.8162 315.285 76.1026 316.211C76.3809 316.257 76.6591 316.314 76.9373 316.36C78.6513 316.669 80.2762 317.023 81.812 317.412C83.2589 317.778 84.6166 318.178 85.8854 318.613C92.4963 320.855 96.4695 323.862 96.258 327.145H96.2691Z" fill="#FFD766"/>
<path d="M85.8968 318.613C74.9232 325.464 63.8605 332.177 52.8202 338.902C48.5576 338.73 44.5176 338.341 40.8115 337.781C52.5753 330.61 64.3836 323.474 76.114 316.223C76.3923 316.269 76.6705 316.326 76.9487 316.372C78.6627 316.68 80.2876 317.035 81.8234 317.424C83.2702 317.79 84.628 318.19 85.8968 318.625V318.613Z" fill="white"/>
<path d="M91.662 327.11C91.2947 332.909 75.7247 337.518 56.9382 337.369C38.1518 337.22 23.1716 332.383 23.5277 326.584C23.895 320.786 39.465 316.177 58.2515 316.326C77.0379 316.474 92.0181 321.312 91.662 327.11ZM25.6534 326.607C25.3195 331.994 39.3649 336.5 56.9827 336.626C74.5895 336.763 89.1913 332.486 89.5363 327.099C89.8701 321.712 75.8248 317.206 58.207 317.069C40.6002 316.932 25.9984 321.209 25.6534 326.596V326.607Z" fill="#FFBB4D"/>
<path d="M56.3592 334.602V332.692C54.2558 332.669 52.0744 332.337 50.8057 331.857L51.6738 330.587C52.9759 331.045 54.8679 331.399 56.8935 331.399C59.4643 331.399 61.2117 330.622 61.2117 329.547C61.2117 328.471 59.7982 327.865 57.116 327.293C53.4211 326.539 51.1284 325.67 51.1284 324.023C51.1284 322.376 53.2653 321.266 56.6041 320.98V319.071H58.8522V320.9C61.0336 320.935 62.5138 321.244 63.5711 321.564L62.6585 322.81C61.9017 322.582 60.4103 322.17 58.0843 322.17C55.2908 322.17 54.2335 323.039 54.2335 323.794C54.2335 324.777 55.5802 325.269 58.7298 325.944C62.4693 326.733 64.3502 327.717 64.3502 329.398C64.3502 330.885 62.358 332.291 58.6185 332.612V334.579H56.337L56.3592 334.602Z" fill="#E8AB4F"/>
<path d="M118.061 77.3116C136.948 63.0615 162.935 68.0936 181.799 53.7979C184.826 62.4554 187.854 71.1129 190.881 79.7704C171.994 94.0205 146.007 88.9884 127.143 103.284C124.115 94.6266 121.088 85.9691 118.061 77.3116Z" fill="#98D17D"/>
<path d="M121.289 78.2036C121.289 78.2036 121.356 78.1121 121.4 78.0778C130.393 72.2566 140.799 70.1408 150.848 68.0936C160.865 66.0579 171.215 63.9421 180.119 58.1666C180.208 58.1095 180.319 58.098 180.408 58.1323C180.508 58.1666 180.586 58.2467 180.62 58.3496L187.698 78.581C187.754 78.7411 187.698 78.9127 187.564 78.9927C178.572 84.814 168.166 86.9298 158.116 88.9769C148.1 91.0126 137.749 93.1284 128.846 98.9039C128.757 98.9611 128.645 98.9725 128.556 98.9382C128.456 98.9039 128.378 98.8239 128.345 98.7209L121.266 78.4895C121.233 78.3866 121.244 78.2837 121.289 78.1922V78.2036ZM180.13 58.9901C171.204 64.6627 160.932 66.7556 150.982 68.7798C141.077 70.8041 130.838 72.8856 122.001 78.5238L128.846 98.0805C137.771 92.4079 148.044 90.315 157.994 88.2907C167.899 86.2664 178.138 84.185 186.975 78.5467L180.13 58.9901Z" fill="#568966"/>
<path d="M132.607 96.2849C131.85 93.9289 129.168 92.9225 127.143 94.2835L128.656 98.6294C129.947 97.7945 131.249 97.0168 132.607 96.2963V96.2849Z" fill="#568966"/>
<path d="M125.529 76.0535C126.43 78.4895 125.139 81.3715 123.102 82.7325L121.589 78.3865C122.88 77.5517 124.193 76.774 125.54 76.0535H125.529Z" fill="#568966"/>
<path d="M183.424 81.0284C182.578 78.6038 183.769 75.6875 185.861 74.3494C186.362 75.8018 186.874 77.2428 187.375 78.6953C186.084 79.5302 184.771 80.3078 183.424 81.0284Z" fill="#568966"/>
<path d="M176.346 60.8086C177.136 63.0959 179.785 64.2625 181.81 62.81C181.309 61.3576 180.797 59.9166 180.297 58.4641C179.006 59.299 177.703 60.0767 176.346 60.7972V60.8086Z" fill="#568966"/>
<path d="M145.684 80.388C144.07 75.7676 146.764 70.8613 151.471 69.9692C156.246 69.0543 161.577 71.9706 163.269 76.7054C164.927 81.3372 162.156 86.2092 157.481 87.1242C152.685 88.0734 147.365 85.1571 145.684 80.388Z" fill="#568966"/>
<path d="M152.863 71.8677C153.074 72.5196 153.174 72.8398 153.386 73.4917C154.365 73.4116 155.311 73.3888 156.246 73.7433C156.224 74.2008 156.202 74.4295 156.179 74.8869C155.322 74.5667 154.376 74.4638 153.486 74.6239C152.651 74.7726 151.572 75.516 151.939 76.5453C152.306 77.5631 153.542 77.9748 154.499 78.1235C155.923 78.3522 157.715 78.8326 158.227 80.4108C158.683 81.8175 157.737 83.0298 156.457 83.4415C156.669 84.0934 156.769 84.4137 156.981 85.0655C156.558 85.1342 156.335 85.1799 155.912 85.2485C155.712 84.6195 155.612 84.3107 155.411 83.6932C154.61 83.8075 153.775 83.7618 152.996 83.5216C153.03 83.0641 153.052 82.8354 153.085 82.3894C153.875 82.641 154.621 82.6295 155.422 82.5609C156.268 82.4923 157.081 81.7489 156.802 80.8683C156.457 79.7818 155.022 79.5874 154.087 79.4044C152.629 79.1185 150.993 78.5238 150.481 76.9227C150.014 75.4588 150.982 74.155 152.328 73.7204C152.117 73.0571 152.006 72.714 151.794 72.0507C152.228 71.982 152.44 71.9363 152.874 71.8677H152.863Z" fill="#CDDD9B"/>
<path d="M176.613 72.4853C176.29 71.5475 176.824 70.4381 177.648 69.9921C178.516 69.5232 179.584 70.0607 179.885 70.9185C180.185 71.7991 179.796 73.0686 178.872 73.4689C178.015 73.8348 176.936 73.4002 176.613 72.4853Z" fill="white"/>
<path d="M132.34 84.5968C132.039 83.7505 130.96 83.1329 130.081 83.6132C129.235 84.0707 128.745 85.2258 129.068 86.1636C129.379 87.0899 130.47 87.4559 131.305 87.09C132.229 86.6897 132.652 85.4774 132.34 84.5968Z" fill="#FFE164"/>
<path d="M235.22 133.145C249.088 130.389 264.179 132.585 277 138.452C276.199 145.234 275.787 148.619 274.986 155.401C262.142 149.568 247.051 147.418 233.184 150.209C233.996 143.381 234.397 139.962 235.209 133.134L235.22 133.145Z" fill="#98D17D"/>
<path d="M236.823 134.529C236.823 134.529 236.856 134.529 236.867 134.518C250.679 133.248 262.031 134.712 275.075 139.356C275.119 139.378 275.164 139.413 275.197 139.47C275.23 139.527 275.242 139.584 275.23 139.63C274.607 144.914 274.284 147.556 273.661 152.839C273.65 152.942 273.561 152.999 273.45 152.954C260.395 148.345 249.043 146.904 235.231 148.196C235.176 148.196 235.131 148.196 235.098 148.162C235.064 148.127 235.053 148.082 235.053 148.036C235.688 142.718 235.999 140.053 236.634 134.735C236.645 134.644 236.723 134.552 236.812 134.518L236.823 134.529ZM274.841 139.676C261.931 135.113 250.668 133.66 237.012 134.884C236.4 140.042 236.088 142.626 235.476 147.784C249.132 146.526 260.395 147.956 273.316 152.496C273.928 147.373 274.229 144.799 274.841 139.676Z" fill="#568966"/>
<path d="M238.069 147.636C238.258 146.057 237.146 144.925 235.599 145.165C235.465 146.309 235.398 146.881 235.265 148.024C236.389 147.853 236.945 147.773 238.08 147.647L238.069 147.636Z" fill="#568966"/>
<path d="M239.65 134.346C239.46 135.924 238.047 137.331 236.5 137.571C236.634 136.428 236.7 135.856 236.834 134.712C237.958 134.541 238.514 134.461 239.65 134.335V134.346Z" fill="#568966"/>
<path d="M270.823 151.707C271.012 150.14 272.359 149.317 273.817 149.934C273.684 151.066 273.617 151.638 273.483 152.771C272.426 152.324 271.892 152.107 270.823 151.707Z" fill="#568966"/>
<path d="M272.393 138.486C272.204 140.053 273.25 141.769 274.708 142.386C274.841 141.254 274.908 140.682 275.042 139.55C273.984 139.104 273.45 138.887 272.382 138.486H272.393Z" fill="#568966"/>
<path d="M249.889 140.613C250.256 137.503 253.06 135.067 256.121 135.455C259.182 135.844 261.33 138.898 260.962 141.997C260.595 145.108 257.835 147.086 254.786 146.709C251.725 146.332 249.521 143.724 249.9 140.602L249.889 140.613Z" fill="#568966"/>
<path d="M256.377 136.851C256.31 137.274 256.288 137.48 256.221 137.903C256.834 138.017 257.446 138.315 257.78 138.646C257.635 138.909 257.568 139.035 257.423 139.298C257.078 138.978 256.555 138.681 255.954 138.589C255.198 138.475 254.619 138.829 254.53 139.424C254.441 139.996 254.808 140.419 255.554 140.842C256.578 141.425 257.179 142.032 257.045 142.946C256.923 143.816 256.199 144.353 255.186 144.365C255.12 144.788 255.097 144.994 255.031 145.417C254.763 145.371 254.63 145.36 254.374 145.314C254.43 144.914 254.463 144.708 254.519 144.296C253.884 144.182 253.461 143.964 253.183 143.747C253.328 143.484 253.406 143.358 253.55 143.095C253.762 143.255 254.162 143.541 254.841 143.633C255.665 143.758 256.043 143.335 256.099 142.912C256.177 142.375 255.821 142.02 254.953 141.517C253.918 140.911 253.439 140.305 253.573 139.378C253.695 138.555 254.396 137.846 255.52 137.834C255.587 137.4 255.62 137.182 255.676 136.748C255.943 136.794 256.077 136.805 256.344 136.851H256.377Z" fill="#CDDD9B"/>
<path d="M269.454 144.319C269.532 143.69 270.078 143.347 270.667 143.564C271.257 143.781 271.68 144.468 271.602 145.097C271.524 145.726 270.99 146.057 270.389 145.84C269.799 145.623 269.365 144.948 269.443 144.319H269.454Z" fill="white"/>
<path d="M241.119 140.762C241.197 140.133 240.751 139.653 240.128 139.721C239.505 139.779 238.937 140.35 238.859 140.979C238.782 141.608 239.227 142.066 239.85 142.009C240.473 141.952 241.041 141.391 241.119 140.762Z" fill="#FFE164"/>
<path d="M53.8317 247.932H56.968L58.5447 249.96L60.0959 251.767L63.0192 255.432H59.576L57.5646 252.96L56.5334 251.494L53.8317 247.932ZM63.2834 245.273C63.2834 247.176 62.9226 248.795 62.201 250.131C61.4851 251.466 60.5078 252.486 59.2692 253.19C58.0362 253.889 56.6499 254.239 55.1101 254.239C53.5589 254.239 52.1669 253.886 50.9339 253.182C49.701 252.477 48.7266 251.457 48.0107 250.122C47.2947 248.787 46.9368 247.17 46.9368 245.273C46.9368 243.369 47.2947 241.75 48.0107 240.415C48.7266 239.08 49.701 238.062 50.9339 237.364C52.1669 236.659 53.5589 236.307 55.1101 236.307C56.6499 236.307 58.0362 236.659 59.2692 237.364C60.5078 238.062 61.4851 239.08 62.201 240.415C62.9226 241.75 63.2834 243.369 63.2834 245.273ZM59.5419 245.273C59.5419 244.04 59.3572 243 58.9879 242.153C58.6243 241.307 58.1101 240.665 57.4453 240.227C56.7805 239.79 56.0021 239.571 55.1101 239.571C54.218 239.571 53.4396 239.79 52.7749 240.227C52.1101 240.665 51.593 241.307 51.2237 242.153C50.8601 243 50.6783 244.04 50.6783 245.273C50.6783 246.506 50.8601 247.545 51.2237 248.392C51.593 249.239 52.1101 249.881 52.7749 250.318C53.4396 250.756 54.218 250.974 55.1101 250.974C56.0021 250.974 56.7805 250.756 57.4453 250.318C58.1101 249.881 58.6243 249.239 58.9879 248.392C59.3572 247.545 59.5419 246.506 59.5419 245.273ZM74.3438 248.426V240.909H77.9744V254H74.4886V251.622H74.3523C74.0568 252.389 73.5653 253.006 72.8778 253.472C72.196 253.937 71.3636 254.17 70.3807 254.17C69.5057 254.17 68.7358 253.972 68.071 253.574C67.4063 253.176 66.8864 252.611 66.5114 251.878C66.142 251.145 65.9545 250.267 65.9489 249.244V240.909H69.5795V248.597C69.5852 249.369 69.7926 249.98 70.2017 250.429C70.6108 250.878 71.1591 251.102 71.8466 251.102C72.2841 251.102 72.6932 251.003 73.0739 250.804C73.4545 250.599 73.7614 250.298 73.9943 249.901C74.233 249.503 74.3494 249.011 74.3438 248.426ZM84.6115 254.247C83.7763 254.247 83.032 254.102 82.3786 253.812C81.7251 253.517 81.2081 253.082 80.8274 252.509C80.4524 251.929 80.2649 251.207 80.2649 250.344C80.2649 249.616 80.3984 249.006 80.6655 248.511C80.9325 248.017 81.2962 247.619 81.7564 247.318C82.2166 247.017 82.7393 246.79 83.3246 246.636C83.9155 246.483 84.5348 246.375 85.1825 246.312C85.9439 246.233 86.5575 246.159 87.0234 246.091C87.4893 246.017 87.8274 245.909 88.0376 245.767C88.2479 245.625 88.353 245.415 88.353 245.136V245.085C88.353 244.545 88.1825 244.128 87.8416 243.832C87.5064 243.537 87.0291 243.389 86.4098 243.389C85.7564 243.389 85.2365 243.534 84.8501 243.824C84.4638 244.108 84.2081 244.466 84.0831 244.898L80.7251 244.625C80.8956 243.83 81.2308 243.142 81.7308 242.562C82.2308 241.977 82.8757 241.528 83.6655 241.216C84.4609 240.898 85.3814 240.739 86.4268 240.739C87.1541 240.739 87.8501 240.824 88.5149 240.994C89.1854 241.165 89.7791 241.429 90.2962 241.787C90.8189 242.145 91.2308 242.605 91.532 243.168C91.8331 243.724 91.9837 244.392 91.9837 245.17V254H88.5405V252.185H88.4382C88.228 252.594 87.9467 252.955 87.5945 253.267C87.2422 253.574 86.8189 253.815 86.3246 253.991C85.8303 254.162 85.2592 254.247 84.6115 254.247ZM85.6513 251.741C86.1854 251.741 86.657 251.636 87.0661 251.426C87.4751 251.21 87.7962 250.92 88.0291 250.557C88.2621 250.193 88.3786 249.781 88.3786 249.321V247.932C88.2649 248.006 88.1087 248.074 87.9098 248.136C87.7166 248.193 87.4979 248.247 87.2536 248.298C87.0092 248.344 86.7649 248.386 86.5206 248.426C86.2763 248.46 86.0547 248.491 85.8558 248.52C85.4297 248.582 85.0575 248.682 84.7393 248.818C84.4212 248.955 84.174 249.139 83.9979 249.372C83.8217 249.599 83.7337 249.884 83.7337 250.224C83.7337 250.719 83.9126 251.097 84.2706 251.358C84.6342 251.614 85.0945 251.741 85.6513 251.741ZM85.3018 239.222L82.7024 235.344H86.0518L87.8672 239.222H85.3018ZM107.318 240.909V243.636H99.4347V240.909H107.318ZM101.224 237.773H104.855V249.977C104.855 250.312 104.906 250.574 105.009 250.761C105.111 250.943 105.253 251.071 105.435 251.145C105.622 251.219 105.838 251.256 106.082 251.256C106.253 251.256 106.423 251.241 106.594 251.213C106.764 251.179 106.895 251.153 106.986 251.136L107.557 253.838C107.375 253.895 107.119 253.96 106.79 254.034C106.46 254.114 106.06 254.162 105.588 254.179C104.713 254.213 103.946 254.097 103.287 253.83C102.634 253.562 102.125 253.148 101.761 252.585C101.398 252.023 101.219 251.312 101.224 250.455V237.773ZM113.416 254.247C112.581 254.247 111.837 254.102 111.183 253.812C110.53 253.517 110.013 253.082 109.632 252.509C109.257 251.929 109.07 251.207 109.07 250.344C109.07 249.616 109.203 249.006 109.47 248.511C109.737 248.017 110.101 247.619 110.561 247.318C111.021 247.017 111.544 246.79 112.129 246.636C112.72 246.483 113.339 246.375 113.987 246.312C114.749 246.233 115.362 246.159 115.828 246.091C116.294 246.017 116.632 245.909 116.842 245.767C117.053 245.625 117.158 245.415 117.158 245.136V245.085C117.158 244.545 116.987 244.128 116.646 243.832C116.311 243.537 115.834 243.389 115.214 243.389C114.561 243.389 114.041 243.534 113.655 243.824C113.268 244.108 113.013 244.466 112.888 244.898L109.53 244.625C109.7 243.83 110.036 243.142 110.536 242.562C111.036 241.977 111.68 241.528 112.47 241.216C113.266 240.898 114.186 240.739 115.232 240.739C115.959 240.739 116.655 240.824 117.32 240.994C117.99 241.165 118.584 241.429 119.101 241.787C119.624 242.145 120.036 242.605 120.337 243.168C120.638 243.724 120.788 244.392 120.788 245.17V254H117.345V252.185H117.243C117.033 252.594 116.751 252.955 116.399 253.267C116.047 253.574 115.624 253.815 115.129 253.991C114.635 254.162 114.064 254.247 113.416 254.247ZM114.456 251.741C114.99 251.741 115.462 251.636 115.871 251.426C116.28 251.21 116.601 250.92 116.834 250.557C117.067 250.193 117.183 249.781 117.183 249.321V247.932C117.07 248.006 116.913 248.074 116.714 248.136C116.521 248.193 116.303 248.247 116.058 248.298C115.814 248.344 115.57 248.386 115.325 248.426C115.081 248.46 114.859 248.491 114.661 248.52C114.234 248.582 113.862 248.682 113.544 248.818C113.226 248.955 112.979 249.139 112.803 249.372C112.626 249.599 112.538 249.884 112.538 250.224C112.538 250.719 112.717 251.097 113.075 251.358C113.439 251.614 113.899 251.741 114.456 251.741ZM117.055 236.341H119.587C119.581 237.375 119.197 238.207 118.436 238.838C117.68 239.469 116.658 239.784 115.368 239.784C114.072 239.784 113.047 239.469 112.291 238.838C111.536 238.207 111.158 237.375 111.158 236.341H113.672C113.666 236.733 113.791 237.085 114.047 237.398C114.308 237.71 114.749 237.866 115.368 237.866C115.97 237.866 116.402 237.713 116.663 237.406C116.925 237.099 117.055 236.744 117.055 236.341ZM115.223 258.901C114.683 258.901 114.22 258.722 113.834 258.364C113.447 258.006 113.254 257.574 113.254 257.068C113.254 256.562 113.447 256.131 113.834 255.773C114.22 255.415 114.683 255.236 115.223 255.236C115.763 255.236 116.223 255.415 116.604 255.773C116.99 256.131 117.183 256.562 117.183 257.068C117.183 257.574 116.99 258.006 116.604 258.364C116.223 258.722 115.763 258.901 115.223 258.901ZM127.236 246.432V254H123.605V240.909H127.065V243.219H127.219C127.509 242.457 127.994 241.855 128.676 241.412C129.358 240.963 130.185 240.739 131.156 240.739C132.065 240.739 132.858 240.938 133.534 241.335C134.21 241.733 134.736 242.301 135.111 243.04C135.486 243.773 135.673 244.648 135.673 245.665V254H132.043V246.312C132.048 245.511 131.844 244.886 131.429 244.438C131.014 243.983 130.443 243.756 129.716 243.756C129.227 243.756 128.795 243.861 128.42 244.071C128.051 244.281 127.761 244.588 127.551 244.991C127.347 245.389 127.241 245.869 127.236 246.432ZM144.433 259.182C143.256 259.182 142.248 259.02 141.407 258.696C140.572 258.378 139.907 257.943 139.413 257.392C138.918 256.841 138.597 256.222 138.45 255.534L141.808 255.082C141.91 255.344 142.072 255.588 142.293 255.815C142.515 256.043 142.808 256.224 143.171 256.361C143.54 256.503 143.989 256.574 144.518 256.574C145.308 256.574 145.958 256.381 146.469 255.994C146.987 255.614 147.245 254.974 147.245 254.077V251.682H147.092C146.933 252.045 146.694 252.389 146.376 252.713C146.058 253.037 145.648 253.301 145.148 253.506C144.648 253.71 144.052 253.812 143.359 253.812C142.376 253.812 141.481 253.585 140.674 253.131C139.873 252.67 139.234 251.969 138.756 251.026C138.285 250.077 138.049 248.878 138.049 247.429C138.049 245.946 138.29 244.707 138.773 243.713C139.256 242.719 139.898 241.974 140.7 241.48C141.506 240.986 142.39 240.739 143.35 240.739C144.083 240.739 144.697 240.864 145.191 241.114C145.685 241.358 146.083 241.665 146.384 242.034C146.691 242.398 146.927 242.756 147.092 243.108H147.228V240.909H150.833V254.128C150.833 255.241 150.56 256.173 150.015 256.923C149.469 257.673 148.714 258.236 147.748 258.611C146.788 258.991 145.683 259.182 144.433 259.182ZM144.509 251.085C145.094 251.085 145.589 250.94 145.992 250.651C146.401 250.355 146.714 249.935 146.93 249.389C147.151 248.838 147.262 248.179 147.262 247.412C147.262 246.645 147.154 245.98 146.938 245.418C146.722 244.849 146.41 244.409 146.001 244.097C145.592 243.784 145.094 243.628 144.509 243.628C143.913 243.628 143.41 243.79 143.001 244.114C142.592 244.432 142.282 244.875 142.072 245.443C141.862 246.011 141.756 246.668 141.756 247.412C141.756 248.168 141.862 248.821 142.072 249.372C142.288 249.918 142.597 250.341 143.001 250.642C143.41 250.937 143.913 251.085 144.509 251.085Z" fill="white"/>
</g>
<defs>
<clipPath id="clip0_410_7592">
<rect width="277" height="365" fill="white"/>
</clipPath>
</defs>
</svg>
