<svg width="153" height="143" viewBox="0 0 153 143" fill="none" xmlns="http://www.w3.org/2000/svg">
<path d="M56.1797 120.656C56.1797 122.203 55.689 123.715 54.7696 125.001C53.8502 126.287 52.5434 127.289 51.0145 127.881C49.4856 128.473 47.8032 128.628 46.1801 128.326C44.5571 128.025 43.0662 127.28 41.896 126.186C40.7258 125.092 39.9289 123.699 39.6061 122.182C39.2832 120.665 39.4489 119.093 40.0822 117.664C40.7155 116.235 41.788 115.013 43.1639 114.154C44.5399 113.295 46.1576 112.836 47.8125 112.836C50.0316 112.836 52.1598 113.66 53.729 115.126C55.2981 116.593 56.1797 118.582 56.1797 120.656ZM109.969 112.836C108.314 112.836 106.696 113.295 105.32 114.154C103.944 115.013 102.872 116.235 102.238 117.664C101.605 119.093 101.439 120.665 101.762 122.182C102.085 123.699 102.882 125.092 104.052 126.186C105.222 127.28 106.713 128.025 108.336 128.326C109.959 128.628 111.642 128.473 113.171 127.881C114.7 127.289 116.006 126.287 116.926 125.001C117.845 123.715 118.336 122.203 118.336 120.656C118.336 118.582 117.454 116.593 115.885 115.126C114.316 113.66 112.188 112.836 109.969 112.836ZM135.967 41.1125L120.189 92.7266C119.39 95.2938 117.725 97.551 115.441 99.1616C113.158 100.772 110.379 101.65 107.518 101.664H50.2629C47.4023 101.65 44.6232 100.772 42.34 99.1616C40.0567 97.551 38.3914 95.2938 37.5926 92.7266L21.8145 41.2242V41.0566L15.9574 22.0645C15.9019 21.8232 15.7581 21.6075 15.5509 21.4546C15.3436 21.3017 15.0859 21.221 14.8219 21.2266H4.78125C3.8302 21.2266 2.9181 20.8735 2.24561 20.2449C1.57312 19.6164 1.19531 18.7639 1.19531 17.875C1.19531 16.9861 1.57312 16.1336 2.24561 15.5051C2.9181 14.8765 3.8302 14.5234 4.78125 14.5234H14.8219C16.6452 14.5295 18.4173 15.0881 19.8721 16.1154C21.3269 17.1428 22.3859 18.5834 22.8902 20.2211L27.9703 36.8672H132.5C133.057 36.8672 133.606 36.9883 134.104 37.221C134.602 37.4537 135.035 37.7916 135.369 38.2078C135.7 38.617 135.926 39.0916 136.029 39.5952C136.133 40.0988 136.112 40.6179 135.967 41.1125ZM127.779 43.5703H30.0023L44.5254 90.8832C44.8766 92.0539 45.6269 93.0855 46.6624 93.8214C47.6979 94.5574 48.962 94.9575 50.2629 94.9609H107.518C108.819 94.9575 110.083 94.5574 111.119 93.8214C112.154 93.0855 112.905 92.0539 113.256 90.8832L127.779 43.5703Z" fill="#BFC2C4" fill-opacity="0.8"/>
</svg>
