<svg width="6" height="6" viewBox="0 0 6 6" fill="none" xmlns="http://www.w3.org/2000/svg">
<path d="M1.70283 5.046L0.214397 3.55715C0.146119 3.48893 0.0919546 3.40792 0.0549996 3.31876C0.0180445 3.2296 -0.000976562 3.13402 -0.000976562 3.0375C-0.000976563 2.94099 0.0180445 2.84541 0.0549996 2.75625C0.0919546 2.66709 0.146119 2.58608 0.214397 2.51786C0.352285 2.38018 0.53918 2.30284 0.73404 2.30284C0.9289 2.30284 1.11579 2.38018 1.25368 2.51786L2.18583 3.44915C2.20462 3.46783 2.23004 3.47832 2.25654 3.47832C2.28304 3.47832 2.30846 3.46783 2.32725 3.44915L4.7444 1.032C4.88229 0.89432 5.06918 0.816986 5.26404 0.816986C5.4589 0.816986 5.64579 0.89432 5.78368 1.032C5.85196 1.10022 5.90613 1.18123 5.94308 1.27039C5.98003 1.35956 5.99906 1.45513 5.99906 1.55165C5.99906 1.64817 5.98003 1.74374 5.94308 1.8329C5.90613 1.92206 5.85196 2.00307 5.78368 2.07129L2.8094 5.046C2.66264 5.19272 2.46362 5.27514 2.25611 5.27514C2.0486 5.27514 1.84958 5.19272 1.70283 5.046Z" fill="#00CA08"/>
</svg>
