<svg
                className="mr-[6px]"
                width="14"
                height="16"
                viewBox="0 0 12 13"
                fill="none"
                xmlns="http://www.w3.org/2000/svg"
              >
                <rect width="12" height="13" fill="#1E1E1E" />
                <g
                  id="Trang t&#195;&#160;i kho&#225;&#186;&#163;n: &#196;&#144;&#198;&#161;n h&#195;&#160;ng c&#225;&#187;&#167;a b&#225;&#186;&#161;n"
                  clipPath="url(#clip0_410_1860)"
                >
                  <rect
                    width="390"
                    height="1102"
                    transform="translate(-39 -171)"
                    fill="#F8F8F8"
                  />
                  <rect
                    id="Rectangle 65"
                    x="-39"
                    y="-77"
                    width="390"
                    height="964"
                    fill="white"
                  />
                  <g id="Frame 1000005005">
                    <path
                      d="M-33 -26C-33 -34.8365 -25.8366 -42 -17 -42H326C334.837 -42 342 -34.8366 342 -26V1052H-33V-26Z"
                      fill="white"
                    />
                    <g id="Frame 1000005002">
                      <g id="Frame 1000005011">
                        <rect
                          x="-16.5"
                          y="-17.5"
                          width="342"
                          height="164"
                          rx="15.5"
                          fill="white"
                        />
                        <g id="Frame 1000004983">
                          <g id="Frame 1000004974">
                            <g id="Frame 1000004987">
                              <g id="order 1">
                                <g id="Icon">
                                  <path
                                    id="Vector"
                                    fillRule="evenodd"
                                    clipRule="evenodd"
                                    d="M10.375 2V11.5C10.375 11.639 10.298 11.7665 10.175 11.8315C10.052 11.8965 9.9035 11.888 9.7885 11.8095L8.541 10.958L7.3615 11.8045C7.22 11.9065 7.027 11.897 6.896 11.782L6 10.9985L5.104 11.782C4.973 11.897 4.78 11.9065 4.6385 11.8045L3.459 10.958L2.2115 11.8095C2.0965 11.888 1.948 11.8965 1.825 11.8315C1.702 11.7665 1.625 11.639 1.625 11.5V2C1.625 1.517 2.0165 1.125 2.5 1.125H9.5C9.9835 1.125 10.375 1.517 10.375 2ZM4 5.875H8C8.207 5.875 8.375 5.707 8.375 5.5C8.375 5.293 8.207 5.125 8 5.125H4C3.793 5.125 3.625 5.293 3.625 5.5C3.625 5.707 3.793 5.875 4 5.875ZM4 3.875H8C8.207 3.875 8.375 3.707 8.375 3.5C8.375 3.293 8.207 3.125 8 3.125H4C3.793 3.125 3.625 3.293 3.625 3.5C3.625 3.707 3.793 3.875 4 3.875ZM4 7.875H6C6.207 7.875 6.375 7.707 6.375 7.5C6.375 7.293 6.207 7.125 6 7.125H4C3.793 7.125 3.625 7.293 3.625 7.5C3.625 7.707 3.793 7.875 4 7.875Z"
                                    fill="#858688"
                                  />
                                </g>
                              </g>
                            </g>
                          </g>
                        </g>
                        <rect
                          x="-16.5"
                          y="-17.5"
                          width="342"
                          height="164"
                          rx="15.5"
                          stroke="#D5D5D5"
                        />
                      </g>
                    </g>
                  </g>
                </g>
                <defs>
                  <clipPath id="clip0_410_1860">
                    <rect
                      width="390"
                      height="1102"
                      fill="white"
                      transform="translate(-39 -171)"
                    />
                  </clipPath>
                </defs>
              </svg>