<svg width="24" height="25" viewBox="0 0 24 25" fill="none" xmlns="http://www.w3.org/2000/svg">
<path d="M18 8.89038H10C8.89543 8.89038 8 9.78581 8 10.8904V18.8904C8 19.995 8.89543 20.8904 10 20.8904H18C19.1046 20.8904 20 19.995 20 18.8904V10.8904C20 9.78581 19.1046 8.89038 18 8.89038Z" stroke="#6B7280" stroke-width="1.5" stroke-linecap="round" stroke-linejoin="round"/>
<path d="M16 8.89038V6.89038C16 6.35995 15.7893 5.85124 15.4142 5.47617C15.0391 5.10109 14.5304 4.89038 14 4.89038H6C5.46957 4.89038 4.96086 5.10109 4.58579 5.47617C4.21071 5.85124 4 6.35995 4 6.89038V14.8904C4 15.4208 4.21071 15.9295 4.58579 16.3046C4.96086 16.6797 5.46957 16.8904 6 16.8904H8" stroke="#6B7280" stroke-width="1.5" stroke-linecap="round" stroke-linejoin="round"/>
</svg>
