<svg width="24" height="23" viewBox="0 0 24 23" fill="none" xmlns="http://www.w3.org/2000/svg">
<path d="M16.4572 18.136H7.52257C7.12336 18.136 6.67663 17.8353 6.54356 17.4708L2.60851 6.91894C2.04772 5.40633 2.70356 4.94161 4.05326 5.87105L7.76019 8.41334C8.37802 8.82338 9.08138 8.6138 9.34752 7.94862L11.0204 3.67502C11.5527 2.3082 12.4366 2.3082 12.9689 3.67502L14.6418 7.94862C14.9079 8.6138 15.6113 8.82338 16.2196 8.41334L19.6984 6.03507C21.1812 5.01451 21.8941 5.5339 21.2857 7.1832L17.4457 17.489C17.3032 17.8353 16.8564 18.136 16.4572 18.136Z" stroke="#FB923C" stroke-width="2" stroke-linecap="round" stroke-linejoin="round"/>
<path d="M6.76221 20.8877H17.2177" stroke="#FB923C" stroke-width="2" stroke-linecap="round" stroke-linejoin="round"/>
<path d="M9.61377 13.5981H14.3662" stroke="#FB923C" stroke-width="2" stroke-linecap="round" stroke-linejoin="round"/>
</svg>
