<svg width="28" height="26" viewBox="0 0 28 26" fill="none" xmlns="http://www.w3.org/2000/svg">
<path fill-rule="evenodd" clip-rule="evenodd" d="M14.875 5.41667C14.875 4.96794 14.4832 4.60417 14 4.60417C13.5167 4.60417 13.125 4.96794 13.125 5.41667V5.75041C12.7438 5.83922 12.3697 5.97797 12.0135 6.16892C8.83798 7.87135 9.24159 12.2405 12.6829 13.4159L13.1251 13.5669L13.125 18.6544C12.501 18.491 11.9434 18.1101 11.5943 17.5486L11.1562 16.8439C10.9145 16.4553 10.3794 16.3222 9.96089 16.5465C9.54239 16.7709 9.399 17.2678 9.64062 17.6564L10.0788 18.3611C10.7537 19.4466 11.8914 20.1279 13.125 20.3163L13.125 20.5833C13.125 21.0321 13.5167 21.3958 14 21.3958C14.4832 21.3958 14.875 21.0321 14.875 20.5833L14.875 20.2496C15.2563 20.1608 15.6304 20.0221 15.9866 19.8311C19.1621 18.1287 18.7585 13.7595 15.3172 12.5841L14.8751 12.4331L14.875 7.34557C15.4991 7.50899 16.0567 7.88989 16.4058 8.45135L16.8439 9.15606C17.0856 9.54467 17.6207 9.67782 18.0392 9.45345C18.4577 9.22909 18.6011 8.73217 18.3595 8.34356L17.9213 7.63885C17.2464 6.55339 16.1086 5.87203 14.875 5.68371V5.41667ZM12.8885 7.57622C12.9662 7.53457 13.0451 7.49714 13.125 7.46383L13.125 11.83C11.2268 11.0517 11.049 8.5624 12.8885 7.57622ZM14.875 18.5362L14.8751 14.17C16.7733 14.9483 16.9512 17.4376 15.1116 18.4238C15.0339 18.4654 14.955 18.5029 14.875 18.5362Z" fill="#2D264B"/>
<path fill-rule="evenodd" clip-rule="evenodd" d="M19.2074 2.57154C17.875 2.43748 16.1954 2.43749 14.0528 2.4375H13.9472C11.8046 2.43749 10.125 2.43748 8.79256 2.57154C7.43276 2.70834 6.33099 2.99252 5.39027 3.62717C4.82077 4.01138 4.31995 4.47643 3.90618 5.00525C3.22271 5.87877 2.91667 6.90185 2.76935 8.16452C2.62498 9.40183 2.62499 10.9614 2.625 12.951V13.049C2.62499 15.0386 2.62498 16.5982 2.76935 17.8355C2.91667 19.0982 3.22271 20.1212 3.90618 20.9947C4.31994 21.5236 4.82077 21.9886 5.39027 22.3728C6.33099 23.0075 7.43276 23.2917 8.79256 23.4285C10.125 23.5625 11.8045 23.5625 13.9471 23.5625H14.0528C16.1954 23.5625 17.875 23.5625 19.2074 23.4285C20.5672 23.2917 21.669 23.0075 22.6097 22.3728C23.1792 21.9886 23.6801 21.5236 24.0938 20.9947C24.7773 20.1212 25.0833 19.0982 25.2306 17.8355C25.375 16.5982 25.375 15.0387 25.375 13.0491V12.951C25.375 10.9614 25.375 9.40181 25.2306 8.16452C25.0833 6.90185 24.7773 5.87877 24.0938 5.00525C23.6801 4.47643 23.1792 4.01138 22.6097 3.62717C21.669 2.99252 20.5672 2.70834 19.2074 2.57154ZM6.4189 4.94182C7.01157 4.54197 7.77016 4.30891 8.98105 4.18708C10.2083 4.06362 11.7932 4.0625 14 4.0625C16.2068 4.0625 17.7917 4.06362 19.0189 4.18708C20.2298 4.30891 20.9884 4.54197 21.5811 4.94182C22.002 5.2258 22.3722 5.56954 22.678 5.96041C23.1086 6.51074 23.3596 7.21514 23.4908 8.33955C23.6238 9.47916 23.625 10.9508 23.625 13C23.625 15.0492 23.6238 16.5208 23.4908 17.6605C23.3596 18.7849 23.1086 19.4893 22.678 20.0396C22.3722 20.4305 22.002 20.7742 21.5811 21.0582C20.9884 21.458 20.2298 21.6911 19.0189 21.8129C17.7917 21.9364 16.2068 21.9375 14 21.9375C11.7932 21.9375 10.2083 21.9364 8.98105 21.8129C7.77016 21.6911 7.01157 21.458 6.4189 21.0582C5.99796 20.7742 5.62779 20.4305 5.32196 20.0396C4.89136 19.4893 4.64036 18.7849 4.50917 17.6605C4.3762 16.5208 4.375 15.0492 4.375 13C4.375 10.9508 4.3762 9.47916 4.50917 8.33955C4.64036 7.21515 4.89136 6.51074 5.32196 5.96041C5.62779 5.56954 5.99796 5.2258 6.4189 4.94182Z" fill="#2D264B"/>
</svg>
