<svg width="24" height="24" viewBox="0 0 24 24" fill="none" xmlns="http://www.w3.org/2000/svg">
<path fill-rule="evenodd" clip-rule="evenodd" d="M8.00334 4C6.89747 3.99815 6 4.89412 6 6V17.9967C6 19.1012 6.89543 19.9967 8 19.9967H16C17.1046 19.9967 18 19.1012 18 17.9967V10.01V8.89542V8.83846C18 8.30802 17.7893 7.79932 17.4142 7.42424L14.5844 4.59446C14.2103 4.22033 13.7032 4.00976 13.1743 4.00868L13.1638 4.00863L8.00334 4ZM12 4.99665H8C7.44772 4.99665 7 5.44437 7 5.99665V17.9967C7 18.5489 7.44772 18.9967 8 18.9967H16C16.5523 18.9967 17 18.5489 17 17.9967V10.01H13C12.4477 10.01 12 9.56231 12 9.01003V4.99665ZM13 5.00887V9.01003H17V8.83846C17 8.57324 16.8946 8.31889 16.7071 8.13135L13.8773 5.30157C13.6895 5.11374 13.4347 5.00836 13.1691 5.00867L13 5.00887ZM8.5 8.01003C8.22386 8.01003 8 8.23389 8 8.51003C8 8.78617 8.22386 9.01003 8.5 9.01003H10.5C10.7761 9.01003 11 8.78617 11 8.51003C11 8.23389 10.7761 8.01003 10.5 8.01003H8.5ZM8 10.51C8 10.2339 8.22386 10.01 8.5 10.01H10.5C10.7761 10.01 11 10.2339 11 10.51C11 10.7862 10.7761 11.01 10.5 11.01H8.5C8.22386 11.01 8 10.7862 8 10.51ZM8.5 12.01C8.22386 12.01 8 12.2339 8 12.51C8 12.7862 8.22386 13.01 8.5 13.01H15.5C15.7761 13.01 16 12.7862 16 12.51C16 12.2339 15.7761 12.01 15.5 12.01H8.5ZM8 14.51C8 14.2339 8.22386 14.01 8.5 14.01H15.5C15.7761 14.01 16 14.2339 16 14.51C16 14.7862 15.7761 15.01 15.5 15.01H8.5C8.22386 15.01 8 14.7862 8 14.51ZM8.5 16.01C8.22386 16.01 8 16.2339 8 16.51C8 16.7862 8.22386 17.01 8.5 17.01H12.5C12.7761 17.01 13 16.7862 13 16.51C13 16.2339 12.7761 16.01 12.5 16.01H8.5Z" fill="#000C61"/>
</svg>
