<svg width="12" height="12" viewBox="0 0 12 12" fill="none" xmlns="http://www.w3.org/2000/svg">
<path d="M6.4375 5.41667C6.4375 5.17504 6.24162 4.97917 6 4.97917C5.75837 4.97917 5.5625 5.17504 5.5625 5.41667V8.91667C5.5625 9.15829 5.75837 9.35417 6 9.35417C6.24162 9.35417 6.4375 9.15829 6.4375 8.91667V5.41667Z" fill="#2D264B"/>
<path fill-rule="evenodd" clip-rule="evenodd" d="M8.60372 0.384675C7.93748 0.312492 7.09771 0.312495 6.0264 0.3125H5.9736C4.90229 0.312495 4.06252 0.312492 3.39628 0.384675C2.71638 0.458337 2.16549 0.611356 1.69514 0.953089C1.41039 1.15997 1.15997 1.41039 0.953089 1.69514C0.611356 2.16549 0.458337 2.71638 0.384675 3.39628C0.312492 4.06252 0.312495 4.90229 0.3125 5.9736V6.0264C0.312495 7.09771 0.312492 7.93748 0.384675 8.60372C0.458337 9.28362 0.611356 9.83451 0.953089 10.3049C1.15997 10.5896 1.41039 10.84 1.69514 11.0469C2.16549 11.3886 2.71638 11.5417 3.39628 11.6153C4.06251 11.6875 4.90226 11.6875 5.97355 11.6875H6.02641C7.09769 11.6875 7.93749 11.6875 8.60372 11.6153C9.28362 11.5417 9.83451 11.3886 10.3049 11.0469C10.5896 10.84 10.84 10.5896 11.0469 10.3049C11.3886 9.83451 11.5417 9.28362 11.6153 8.60372C11.6875 7.93749 11.6875 7.09774 11.6875 6.02645V5.97359C11.6875 4.90231 11.6875 4.06251 11.6153 3.39628C11.5417 2.71638 11.3886 2.16549 11.0469 1.69514C10.84 1.41039 10.5896 1.15997 10.3049 0.953089C9.83451 0.611356 9.28362 0.458337 8.60372 0.384675ZM2.20945 1.66098C2.50578 1.44568 2.88508 1.32018 3.49053 1.25458C4.10416 1.1881 4.89658 1.1875 6 1.1875C7.10342 1.1875 7.89584 1.1881 8.50947 1.25458C9.11492 1.32018 9.49421 1.44568 9.79055 1.66098C10.001 1.81389 10.1861 1.99898 10.339 2.20945C10.5543 2.50578 10.6798 2.88508 10.7454 3.49053C10.8119 4.10416 10.8125 4.89658 10.8125 6C10.8125 7.10342 10.8119 7.89584 10.7454 8.50947C10.6798 9.11492 10.5543 9.49421 10.339 9.79055C10.1861 10.001 10.001 10.1861 9.79055 10.339C9.49421 10.5543 9.11492 10.6798 8.50947 10.7454C7.89584 10.8119 7.10342 10.8125 6 10.8125C4.89658 10.8125 4.10416 10.8119 3.49053 10.7454C2.88508 10.6798 2.50578 10.5543 2.20945 10.339C1.99898 10.1861 1.81389 10.001 1.66098 9.79055C1.44568 9.49421 1.32018 9.11492 1.25458 8.50947C1.1881 7.89584 1.1875 7.10342 1.1875 6C1.1875 4.89658 1.1881 4.10416 1.25458 3.49053C1.32018 2.88508 1.44568 2.50578 1.66098 2.20945C1.81389 1.99898 1.99898 1.81389 2.20945 1.66098Z" fill="#2D264B"/>
<path d="M6.58333 3.66667C6.58333 3.98883 6.32216 4.25 6 4.25C5.67783 4.25 5.41666 3.98883 5.41666 3.66667C5.41666 3.3445 5.67783 3.08333 6 3.08333C6.32216 3.08333 6.58333 3.3445 6.58333 3.66667Z" fill="#2D264B"/>
</svg>
