<svg width="24" height="22" viewBox="0 0 24 22" fill="none" xmlns="http://www.w3.org/2000/svg">
<path d="M10.968 2.32496C11.2676 2.10618 11.629 1.98828 12 1.98828C12.371 1.98828 12.7324 2.10618 13.032 2.32496L20.453 7.74096C21.43 8.45296 20.927 9.99796 19.719 10.001H4.28C3.072 9.99796 2.57 8.45296 3.546 7.74096L10.967 2.32496H10.968ZM13 6.24996C13 5.98474 12.8946 5.73039 12.7071 5.54285C12.5196 5.35532 12.2652 5.24996 12 5.24996C11.7348 5.24996 11.4804 5.35532 11.2929 5.54285C11.1054 5.73039 11 5.98474 11 6.24996C11 6.51518 11.1054 6.76953 11.2929 6.95707C11.4804 7.1446 11.7348 7.24996 12 7.24996C12.2652 7.24996 12.5196 7.1446 12.7071 6.95707C12.8946 6.76953 13 6.51518 13 6.24996ZM11.25 16H9.25V11H11.25V16ZM14.75 16H12.75V11H14.75V16ZM18.5 16H16.25V11H18.5V16ZM18.75 17H5.25C4.65326 17 4.08097 17.237 3.65901 17.659C3.23705 18.0809 3 18.6532 3 19.25V19.75C3 20.165 3.336 20.5 3.75 20.5H20.25C20.4489 20.5 20.6397 20.4209 20.7803 20.2803C20.921 20.1396 21 19.9489 21 19.75V19.25C21 18.6532 20.7629 18.0809 20.341 17.659C19.919 17.237 19.3467 17 18.75 17ZM7.75 16H5.5V11H7.75V16Z" fill="black"/>
</svg>
