<svg width="18" height="18" viewBox="0 0 18 18" fill="none" xmlns="http://www.w3.org/2000/svg">
<path fill-rule="evenodd" clip-rule="evenodd" d="M12.328 1.5C12.8191 1.5 13.2898 1.69606 13.6336 2.04257L15.9593 4.36824C16.3055 4.7145 16.5 5.18413 16.5 5.67381C16.5 6.16349 16.3055 6.63312 15.9593 6.97938L7.46813 15.4678C6.94427 16.0721 6.20167 16.4434 5.35095 16.5017H1.5V15.7517L1.50244 12.5905C1.56633 11.7996 1.934 11.0642 2.49487 10.5701L11.0215 2.04347C11.3673 1.69562 11.8375 1.5 12.328 1.5ZM5.29799 15.0036C5.69866 14.9753 6.07162 14.7888 6.3711 14.4462L12.0425 8.77479L9.22674 5.9589L3.52208 11.6622C3.21821 11.9309 3.03023 12.3069 3 12.6509V15.0022L5.29799 15.0036ZM10.2875 4.89836L13.1032 7.71413L14.8986 5.91872C14.9635 5.85376 15 5.76567 15 5.67381C15 5.58195 14.9635 5.49386 14.8986 5.4289L12.5708 3.10114C12.5066 3.03641 12.4192 3 12.328 3C12.2368 3 12.1494 3.03641 12.0852 3.10114L10.2875 4.89836Z" fill="#9BD929"/>
</svg>
