<svg width="17" height="15" viewBox="0 0 17 15" fill="none" xmlns="http://www.w3.org/2000/svg">
<path d="M12.5909 10.3849C13.006 9.50984 13.2727 8.54505 13.2727 7.49955C13.2727 6.43963 13.017 5.49782 12.5909 4.61418M14.6364 12.549C15.4665 11.0161 16 9.66358 16 7.49955C16 5.33552 15.4886 3.99653 14.6364 2.45015M4.30895 4.61418H1.34091C1.25049 4.61418 1.16378 4.65217 1.09985 4.71981C1.03592 4.78745 1 4.87919 1 4.97485V10.0243C1 10.1199 1.03592 10.2116 1.09985 10.2793C1.16378 10.3469 1.25049 10.3849 1.34091 10.3849H4.30895C4.46653 10.385 4.61922 10.4428 4.74105 10.5486L8.63892 13.9299C8.68975 13.9694 8.74996 13.9933 8.81284 13.9988C8.87572 14.0043 8.93881 13.9912 8.99508 13.961C9.05136 13.9308 9.09861 13.8847 9.13158 13.8278C9.16455 13.7709 9.18194 13.7054 9.18182 13.6386V1.36047C9.18178 1.29379 9.16428 1.22843 9.13125 1.17164C9.09821 1.11486 9.05095 1.06887 8.9947 1.03879C8.93846 1.00871 8.87543 0.995712 8.81263 1.00124C8.74982 1.00678 8.68969 1.03062 8.63892 1.07013L4.74105 4.45142C4.6191 4.55684 4.46643 4.61435 4.30895 4.61418V4.61418Z" stroke="#FAA57B" stroke-width="1.2" stroke-linecap="round" stroke-linejoin="round"/>
</svg>
