<svg width="40" height="31" viewBox="0 0 40 31" fill="none" xmlns="http://www.w3.org/2000/svg">
<path fill-rule="evenodd" clip-rule="evenodd" d="M9.81489 0.552002C4.55541 0.552002 0.291748 4.52496 0.291748 9.42585C0.291748 10.8467 1.16621 12.1417 2.54089 12.7565L3.4344 13.1562C5.54462 14.1 5.54462 16.8998 3.4344 17.8436L2.54089 18.2433C1.16621 18.8581 0.291748 20.1531 0.291748 21.574C0.291748 26.4749 4.55541 30.4478 9.81489 30.4478H30.1853C35.4448 30.4478 39.7084 26.4749 39.7084 21.574C39.7084 20.1531 38.834 18.8581 37.4593 18.2433L36.5658 17.8436C34.4555 16.8998 34.4555 14.1 36.5658 13.1562L37.4593 12.7565C38.834 12.1417 39.7084 10.8467 39.7084 9.42585C39.7084 4.52496 35.4448 0.552002 30.1853 0.552002H9.81489ZM25.8433 10.0551C26.3802 10.5555 26.3802 11.3667 25.8433 11.8671L15.4724 21.5309C14.9354 22.0313 14.0648 22.0313 13.5278 21.5309C12.9908 21.0305 12.9908 20.2193 13.5278 19.7189L23.8987 10.0551C24.4357 9.55479 25.3063 9.55479 25.8433 10.0551ZM14.5001 12.0833C13.4876 12.0833 12.6667 11.3184 12.6667 10.3749C12.6667 9.43143 13.4876 8.66659 14.5001 8.66659C15.5126 8.66659 16.3334 9.43143 16.3334 10.3749C16.3334 11.3184 15.5126 12.0833 14.5001 12.0833ZM25.5001 22.3333C24.4876 22.3333 23.6667 21.5684 23.6667 20.6249C23.6667 19.6814 24.4876 18.9166 25.5001 18.9166C26.5126 18.9166 27.3334 19.6814 27.3334 20.6249C27.3334 21.5684 26.5126 22.3333 25.5001 22.3333Z" fill="#2D264B"/>
</svg>
