<svg width="250" height="335" viewBox="0 0 250 335" fill="none" xmlns="http://www.w3.org/2000/svg">
<g clip-path="url(#clip0_410_7480)">
<path d="M135.58 14.76C135.52 11.57 133.7 9.8 130.01 8.38C128.86 7.94 128.41 7.42 128.4 6.6C128.39 5.87 128.61 5.46 129.17 5.44C129.75 5.43 130.06 5.89 130.08 6.83L135.11 6.73C135 3.82 133.75 2.08 130.83 1.66L130.8 0L127.44 0.07L127.47 1.72C124.32 2.35 123.09 4.7 123.14 7.32C123.21 10.56 124.81 11.99 128.23 13.39C129.71 14.06 130.16 14.61 130.18 15.63C130.19 16.21 130 16.83 129.39 16.84C128.75 16.85 128.47 16.27 128.43 15.43L123.17 15.54C123.32 17.86 124.38 20.16 127.86 20.64L127.9 22.49L131.26 22.42L131.22 20.57C134.63 19.95 135.66 17.61 135.61 14.76H135.58Z" fill="#FFD766"/>
<path d="M98.5502 43.25C96.2902 35.32 90.5702 32.07 80.4202 30.95C77.2502 30.59 75.7902 29.59 75.2102 27.56C74.6902 25.74 74.9802 24.56 76.3702 24.16C77.8302 23.75 78.8802 24.7 79.5502 27.03L92.0602 23.47C89.8802 16.27 85.6102 12.73 78.0002 13.6L76.8302 9.47998L68.4602 11.86L69.6302 15.97C62.1602 19.61 60.6202 26.32 62.4802 32.84C64.7802 40.92 69.7402 43.44 79.2202 44.67C83.3502 45.38 84.8402 46.45 85.5602 49C85.9702 50.46 85.9002 52.13 84.3702 52.56C82.7702 53.02 81.7002 51.75 81.0302 49.66L67.9302 53.39C69.8302 59.1 74.0102 64.16 83.0402 63.08L84.3502 67.68L92.7202 65.3L91.4102 60.69C99.5202 56.89 100.58 50.35 98.5602 43.27L98.5502 43.25Z" fill="#FFD766"/>
<path d="M66.5101 36.64C66.3201 36.64 66.1301 36.57 65.9801 36.43C65.8701 36.32 63.2001 33.67 63.7701 27.73C64.4301 20.92 68.4701 19.03 68.6401 18.95C69.0201 18.78 69.4801 18.95 69.6501 19.33C69.8201 19.71 69.6501 20.16 69.2701 20.34C69.1201 20.41 65.8501 22.01 65.2801 27.88C64.7801 33.04 66.9401 35.25 67.0401 35.34C67.3401 35.64 67.3401 36.12 67.0401 36.42C66.8901 36.57 66.6901 36.65 66.4901 36.65L66.5101 36.64Z" fill="white"/>
<path d="M71.3702 17.0599C71.0202 17.0599 70.7102 16.8199 70.6302 16.4699L69.7802 12.8799C69.6802 12.4699 69.9402 12.0599 70.3502 11.9599C70.7602 11.8599 71.1702 12.1199 71.2702 12.5299L72.1202 16.1199C72.2202 16.5299 71.9602 16.9399 71.5502 17.0399C71.4902 17.0499 71.4302 17.0599 71.3702 17.0599Z" fill="white"/>
<path d="M230.3 74.3101C234.49 70.6701 234.83 66.2501 232.61 59.7501C231.92 57.7201 232.11 56.5401 233.19 55.6001C234.15 54.7601 234.96 54.6001 235.59 55.3301C236.26 56.1001 235.98 57.0201 234.75 58.0901L240.5 64.7001C244.26 61.3101 245.2 57.7001 242.5 53.3201L244.68 51.4301L240.84 47.0101L238.67 48.9001C234.32 45.3901 229.79 46.3701 226.35 49.3601C222.09 53.0701 221.97 56.8101 223.93 62.9401C224.68 65.6601 224.45 66.8701 223.11 68.0401C222.34 68.7101 221.3 69.1401 220.6 68.3301C219.87 67.4901 220.33 66.4701 221.41 65.4601L215.4 58.5501C212.46 61.3401 210.57 65.3301 213.82 70.5201L211.39 72.6301L215.23 77.0501L217.66 74.9301C222.3 78.7901 226.58 77.5601 230.32 74.3101H230.3Z" fill="#FFD766"/>
<path d="M227.43 51.76C227.32 51.72 227.21 51.66 227.12 51.57C226.82 51.27 226.83 50.78 227.13 50.48C227.28 50.33 230.86 46.9 235.53 48.43C235.63 48.46 235.73 48.5 235.83 48.54C236.23 48.69 236.43 49.13 236.28 49.53C236.13 49.93 235.68 50.12 235.29 49.98C231.37 48.54 228.24 51.55 228.21 51.58C228 51.79 227.69 51.85 227.43 51.76Z" fill="white"/>
<path d="M181.94 36.53C186.24 30.66 188.11 24.11 187.4 19.06L189.32 16.44L184.89 12.89C179.18 8.71005 169.11 12.74 162.4 21.91C155.69 31.07 154.88 41.89 160.6 46.07L165.03 49.62L166.95 47C171.98 46.15 177.65 42.39 181.95 36.52L181.94 36.53Z" fill="#F7AC41"/>
<path d="M187.541 40.6225C194.249 31.4606 195.055 20.6428 189.342 16.4601C183.63 12.2774 173.561 16.3139 166.853 25.4757C160.145 34.6376 159.338 45.4554 165.051 49.6381C170.764 53.8207 180.833 49.7843 187.541 40.6225Z" fill="#FFD766"/>
<path d="M169.14 48.8599C168.48 48.6399 167.87 48.3299 167.32 47.9299C165.02 46.2399 163.99 43.1499 164.42 39.2099C164.84 35.3599 166.61 31.1499 169.4 27.3399C172.19 23.5299 175.67 20.5699 179.21 19.0099C182.84 17.4099 186.1 17.4599 188.4 19.1399C190.7 20.8299 191.73 23.9199 191.3 27.8599C190.88 31.7099 189.11 35.9199 186.32 39.7299C183.53 43.5399 180.05 46.4999 176.51 48.0599C173.76 49.2699 171.21 49.5399 169.14 48.8599ZM186.28 19.1099C184.43 18.4999 182.12 18.7599 179.59 19.8799C176.2 21.3799 172.85 24.2199 170.16 27.8999C164.66 35.4199 163.63 44.0599 167.88 47.1699C172.13 50.2799 180.06 46.6899 185.56 39.1799C191.06 31.6599 192.09 23.0199 187.84 19.9099C187.37 19.5599 186.85 19.2999 186.28 19.1099Z" fill="#F7AC41"/>
<path d="M171.96 41.25L173.52 39.12C172.67 38.46 172.05 37.43 171.91 36.51L173.3 35.36C173.47 36.26 173.95 37.23 174.79 37.85C175.85 38.63 177.21 38.29 178.09 37.09C178.94 35.93 178.88 34.79 178.23 33.34C177.32 31.38 177.09 29.72 178.43 27.88C179.71 26.13 181.57 25.45 183.18 26.14L184.74 24.01L185.67 24.69L184.17 26.73C185.04 27.43 185.41 28.22 185.58 28.89L184.19 30.01C184.06 29.53 183.79 28.61 182.83 27.91C181.68 27.07 180.53 27.72 179.91 28.56C179.11 29.66 179.26 30.61 180.01 32.32C180.9 34.34 180.88 36 179.51 37.88C178.29 39.55 176.32 40.5 174.52 39.73L172.91 41.92L171.97 41.23L171.96 41.25Z" fill="#F7AC41"/>
<path d="M163.73 32.47C163.47 32.47 163.22 32.41 162.97 32.3C162.09 31.88 161.73 30.83 162.15 29.95C166.55 20.8 173.38 16.69 173.67 16.52C174.51 16.03 175.58 16.31 176.08 17.14C176.57 17.98 176.3 19.05 175.46 19.55C175.38 19.6 169.23 23.35 165.32 31.47C165.02 32.1 164.39 32.47 163.73 32.47Z" fill="white"/>
<path d="M183.78 329.85L93.2702 330.9C89.9802 330.9 76.2402 331.51 79.3202 332.87C82.1802 334.12 101.87 334.84 105.16 334.84L195.14 334.03C206.04 333.95 210.23 334.11 206.96 333.03C206.96 333.03 203.8 329.85 183.79 329.85H183.78Z" fill="#58A3AF"/>
<path d="M226.48 101.93L239 160.32L196.96 168.98L185.37 111.05L226.48 101.93Z" fill="#FFE164"/>
<path d="M234.91 97.1699L249.55 155.39L244.04 156.64L239 160.32L226.48 101.93L234.91 97.1699Z" fill="#F2A25C"/>
<path d="M234.91 97.1699L226.48 101.93L185.37 111.05L187.7 108.94L189.58 107.2L234.91 97.1699Z" fill="#F2A25C"/>
<path d="M244.04 156.64L230.57 99.6199L234.91 97.1699L249.55 155.39L244.04 156.64Z" fill="#F2A25C"/>
<path d="M169.53 328.49C170.13 326.3 171.24 324.95 171.4 322.94C171.41 322.8 169.55 316.12 169.47 315.93C169.14 315.1 170.64 310.95 172.46 312.21C176.04 314.69 176.28 309.55 176.73 311.01C178.09 315.36 183.96 325.36 182.59 326.46C180.9 327.82 176.11 330.18 171.38 332.26C167.9 333.79 164.15 332.65 163.74 332.01C165.73 329.03 166.74 331.39 169.53 328.49Z" fill="#404859"/>
<path d="M198.22 86.9799C199.06 86.5099 199.84 85.8499 200.34 85.3399C201.13 84.5299 200.93 83.4099 202.15 83.9299C203.37 84.4499 201.93 86.8599 201.93 86.8599C201.93 86.8599 205.52 84.9899 206.64 85.9599C207.76 86.9199 208.16 90.6399 208.28 91.9799C208.4 93.3199 201.27 96.6099 197.59 94.2299C193.91 91.8499 197.38 87.4599 198.22 86.9899V86.9799Z" fill="#F6BE89"/>
<path d="M215.91 101.81C215.83 101.83 215.75 101.81 215.69 101.74L206.02 91.5501C205.93 91.4501 205.93 91.3001 206.02 91.2101C206.12 91.1201 206.27 91.1201 206.36 91.2101L216.03 101.4C216.12 101.5 216.12 101.65 216.03 101.74C216 101.77 215.96 101.79 215.92 101.8L215.91 101.81Z" fill="#434A59"/>
<path d="M28.3598 95.49C28.2898 95.49 28.2298 95.45 28.1898 95.39C28.1198 95.28 28.1398 95.13 28.2498 95.06L44.2798 84.21C44.3898 84.14 44.5398 84.16 44.6098 84.27C44.6798 84.38 44.6598 84.53 44.5498 84.6L28.5198 95.45C28.5198 95.45 28.4098 95.5 28.3598 95.49Z" fill="#FFE164"/>
<path d="M17.2998 96.3799L11.0098 155.77L53.7298 159.95L59.1498 101.12L17.2998 96.3799Z" fill="#F76757"/>
<path d="M11.7 92.8899L0 151.98L5.61 152.64L11.01 155.77L17.3 96.3799L11.7 92.8899Z" fill="#CE4949"/>
<path d="M11.7002 92.8899L17.3002 96.3799L59.1502 101.12L56.6102 99.2699L54.5602 97.7399L11.7002 92.8899Z" fill="#CE4949"/>
<path d="M44.5399 101.63C44.5399 101.63 44.4699 101.61 44.4299 101.59C44.3199 101.52 44.2899 101.37 44.3599 101.26C44.4299 101.15 51.7199 90.04 52.9999 86.15C53.0399 86.02 53.1799 85.96 53.2999 86C53.4299 86.04 53.4899 86.18 53.4499 86.3C52.1499 90.25 45.0599 101.06 44.7599 101.52C44.7099 101.6 44.6199 101.64 44.5299 101.63H44.5399Z" fill="#FFE164"/>
<path d="M105.79 328.71C107.92 327.78 108.19 325.88 109.1 324.08C109.16 323.96 109.51 321.37 109.51 321.17C109.52 320.28 112.1 317.91 113.3 319.77C115.67 323.43 118.26 317.71 118.13 319.24C117.72 323.79 119.81 331.13 118.11 331.63C114.5 332.69 97.65 333.92 97.33 332.15C97.14 331.09 102.1 330.34 105.79 328.72V328.71Z" fill="#404859"/>
<path d="M138.11 162.95C133.85 153.55 101.48 141.34 92.9399 139.33C92.3199 148.8 87.9499 154.7 82.7799 164.91C78.6099 173.16 82.3299 224.76 89.5799 266.4C94.8799 296.83 103.94 321.69 103.94 321.69C103.94 321.69 104.26 323.66 112.49 323.66C120.72 323.66 121.66 321.69 121.66 321.69C121.66 321.69 113.9 273.29 112.48 257.02C111.15 241.81 110.45 196 110.45 196L163.19 320.14C163.19 320.14 168.41 319.99 172.09 318.45C176.74 316.51 178.77 314.66 178.77 314.66C178.77 314.66 143.01 173.73 138.12 162.94L138.11 162.95Z" fill="#27AE60"/>
<path d="M175.6 314.93C175.47 314.93 175.34 314.84 175.31 314.71C174.39 311.52 171.7 304.7 169.09 298.11C167.17 293.26 165.19 288.25 164.01 284.91C162.24 279.88 161.18 273.92 160.25 268.66C159.73 265.73 159.28 263.2 158.79 261.29C157.37 255.8 145.31 215.88 142.99 209.26C140.71 202.72 137.34 185.1 137.3 184.92C137.27 184.75 137.38 184.59 137.54 184.56C137.71 184.53 137.87 184.64 137.9 184.8C137.93 184.98 141.3 202.55 143.56 209.05C145.87 215.68 157.95 255.64 159.37 261.13C159.87 263.06 160.32 265.6 160.84 268.54C161.77 273.78 162.82 279.71 164.58 284.69C165.76 288.02 167.73 293.03 169.65 297.87C172.26 304.48 174.97 311.31 175.89 314.53C175.94 314.69 175.84 314.86 175.68 314.91C175.65 314.91 175.62 314.92 175.6 314.92V314.93Z" fill="#5DA3AF"/>
<path d="M115.04 91.94C114.55 108.87 85.95 146.07 65.84 143.73C54.7 142.44 51.06 123.01 50 108.2C49 94.25 48.71 84.06 52.64 84.04C58.72 84.02 71.45 121.05 71.45 121.05C71.45 121.05 95.89 91.84 107.15 88.41C116.87 85.45 115.15 88.5 115.05 91.93L115.04 91.94Z" fill="#F6BE89"/>
<path d="M142.73 178.25C121.28 177.3 107.58 173.84 82.8201 168.18C82.2201 169.64 81.9401 171.96 81.7901 174.03C81.7001 175.28 93.72 186.92 123.13 191.05C132.32 192.34 138.66 194.45 147.2 193.69C145.88 188.91 143.8 181.96 142.73 178.26V178.25Z" fill="#448493"/>
<path d="M115.04 91.94C115.14 88.5 117.65 83.66 108.24 87.5C98.43 91.5 83.78 106.3 74.98 116.57C75.27 119.97 77.16 130.69 86.83 135.59C101.55 124.1 114.72 103.39 115.05 91.95L115.04 91.94Z" fill="#F2EFED"/>
<path d="M149 103.85C155.01 118.95 175.43 153.24 195.67 152.73C217.44 152.18 205.75 91.2901 197.7 90.5301C191.64 89.9601 188.74 127.81 188.74 127.81C188.74 127.81 166.92 102.7 156.02 98.2601C146.61 94.4301 148.17 101.76 149 103.84V103.85Z" fill="#F6BE89"/>
<path d="M144.71 136.64C148.29 118.5 157.53 103.52 156.74 99.8098C155.69 94.8998 141.01 87.1898 133.91 85.0698C129.98 83.8898 114.15 82.2299 110.34 84.2299C105.01 87.0299 98.3199 96.8599 92.7899 112.55C80.0999 148.55 82.1799 164.71 80.6899 174.29C82.4799 175.51 88.1199 181.18 106.75 186.08C127.95 191.65 144.46 190.13 147.04 189.15C144.21 177.52 140.83 156.33 144.71 136.65V136.64Z" fill="white"/>
<path d="M156.73 99.8097C156.18 97.2297 151.87 93.8797 146.87 90.9697C144.54 94.9697 140.78 101.1 136.67 114.13C133.34 124.66 126.8 172.96 129.52 189.86C139 190.51 145.49 189.73 147.04 189.14C144.21 177.51 140.83 156.32 144.71 136.64C148.29 118.5 157.53 103.52 156.74 99.8097H156.73Z" fill="#F2EFED"/>
<path d="M51.86 80.8499C50.96 80.3099 50.09 79.5699 49.52 79.0099C48.62 78.1199 48.65 76.9999 47.52 77.4299C46.38 77.8599 48.17 80.4399 48.17 80.4399C48.17 80.4399 45.63 78.8199 44.66 79.7199C43.7 80.6099 42.56 83.8099 42.63 85.1699C42.7 86.5199 50.25 90.4399 53.56 88.2999C56.86 86.1599 52.77 81.4099 51.87 80.8599L51.86 80.8499Z" fill="#F6BE89"/>
<path d="M30.8401 100.18C30.8401 100.18 30.7501 100.16 30.7101 100.12C30.6101 100.03 30.6001 99.8799 30.6901 99.7799C31.3001 99.0699 45.6801 82.4899 47.7301 81.5699C49.8801 80.5999 53.3501 81.8999 54.1401 83.2099C54.2101 83.3199 54.1701 83.4699 54.0601 83.5399C53.9501 83.6099 53.8001 83.5699 53.7301 83.4599C53.0501 82.3499 49.8001 81.1699 47.9201 82.0099C46.3601 82.7099 36.2001 94.1499 31.0401 100.09C30.9901 100.15 30.9101 100.18 30.8301 100.17L30.8401 100.18Z" fill="#FFE164"/>
<path d="M27.7402 112.02L22.9102 162.69L56.1302 165.95L59.4302 115.61L27.7402 112.02Z" fill="#5CBEC6"/>
<path d="M22.09 109.22L13.98 159.59L18.77 160.31L22.91 162.69L27.74 112.02L22.09 109.22Z" fill="#54678C"/>
<path d="M22.0898 109.22L27.7398 112.02L59.4298 115.61L57.4998 114.2L55.9498 113.05L22.0898 109.22Z" fill="#54678C"/>
<path d="M51.6096 138.86C50.9796 137.93 49.9596 137.38 48.5996 137.23C47.2596 137.08 46.1596 137.4 45.3296 138.16C44.5296 138.9 44.0296 140.09 43.8496 141.7C43.6796 143.28 43.8996 144.54 44.4996 145.44C45.1296 146.38 46.1396 146.93 47.4996 147.08C48.8396 147.23 49.9396 146.91 50.7696 146.15C51.5796 145.41 52.0796 144.22 52.2496 142.61C52.4296 141.02 52.2096 139.75 51.5996 138.85L51.6096 138.86ZM47.7996 144.54C47.2096 144.48 47.0296 144.24 46.9396 144.07C46.8396 143.87 46.6896 143.34 46.8296 142.03C46.9696 140.72 47.2396 140.23 47.3796 140.06C47.4996 139.91 47.7296 139.72 48.3196 139.78C48.8896 139.84 49.0696 140.08 49.1596 140.26C49.2596 140.46 49.4096 141 49.2696 142.29C49.1296 143.6 48.8596 144.09 48.7196 144.26C48.5996 144.41 48.3596 144.6 47.7896 144.54H47.7996Z" fill="white"/>
<path d="M40.0898 138.43C40.8898 137.69 41.3898 136.5 41.5698 134.89C41.7398 133.31 41.5198 132.05 40.9198 131.15C40.2898 130.21 39.2798 129.66 37.9198 129.51C36.5798 129.36 35.4798 129.68 34.6498 130.44C33.8398 131.18 33.3398 132.37 33.1698 133.98C32.9898 135.57 33.2098 136.84 33.8198 137.74C34.4498 138.67 35.4698 139.22 36.8298 139.37C38.1698 139.52 39.2698 139.2 40.0998 138.44L40.0898 138.43ZM36.6898 132.33C36.8098 132.18 37.0398 131.99 37.6298 132.05C38.1998 132.11 38.3798 132.35 38.4698 132.53C38.5698 132.73 38.7198 133.27 38.5798 134.56C38.4398 135.87 38.1698 136.36 38.0298 136.53C37.9098 136.68 37.6698 136.87 37.0998 136.81C36.5098 136.75 36.3298 136.51 36.2398 136.34C36.1398 136.14 35.9898 135.61 36.1298 134.3C36.2698 132.99 36.5398 132.5 36.6798 132.33H36.6898Z" fill="white"/>
<path d="M48.6895 131.28C48.5995 131.08 48.4095 130.94 48.1895 130.92L46.5795 130.74C46.3495 130.71 46.1195 130.82 45.9895 131.01L36.7895 144.68C36.6695 144.86 36.6495 145.1 36.7395 145.29C36.8295 145.49 37.0195 145.63 37.2395 145.65L38.8495 145.83C39.0795 145.86 39.3095 145.75 39.4395 145.56L48.6395 131.89C48.7595 131.71 48.7795 131.47 48.6895 131.28Z" fill="white"/>
<path d="M38.2399 115.68H38.2199C38.0899 115.65 38.0099 115.53 38.0299 115.4C38.0499 115.32 39.7199 107.39 41.6299 99.4C45.4999 83.1399 46.5299 82.4399 46.8699 82.2099C47.9499 81.4799 48.9999 81.27 49.8399 81.61C50.4399 81.85 50.8799 82.37 51.0099 83.01C51.2599 84.21 49.7499 115.33 49.6799 116.65C49.6799 116.78 49.5599 116.88 49.4299 116.88C49.2999 116.88 49.1999 116.76 49.1999 116.63C49.6399 107.63 50.7399 84.05 50.5399 83.11C50.4399 82.63 50.1199 82.2399 49.6599 82.0599C48.9699 81.7799 48.0799 81.98 47.1299 82.62C45.6799 83.6 41.1699 102.83 38.4999 115.51C38.4699 115.63 38.3599 115.71 38.2399 115.7V115.68Z" fill="#FFE164"/>
<path d="M47.6501 80.1399C47.6501 80.1399 50.8601 81.8199 50.7801 83.0399C50.7001 84.2699 46.7501 85.8799 45.5201 85.8299C44.2901 85.7799 42.7601 85.8099 42.8601 85.0899C42.9601 84.3799 45.7001 79.4499 47.6401 80.1299L47.6501 80.1399Z" fill="#F6BE89"/>
<path d="M184.12 122.69C176.36 112.84 162.94 101.14 154.6 97.1499C145.43 92.7699 143.33 107.19 144.16 109.27C147.63 117.97 160.72 127.64 170.97 138.75C171.99 135.66 175.59 126.65 184.12 122.68V122.69Z" fill="white"/>
<path d="M214.77 106.8C214.67 106.82 214.56 106.78 214.51 106.68C214.43 106.53 206.25 92.1299 203.82 89.9599C201.59 87.9699 199.07 87.7499 196.9 89.3399C196.79 89.4199 196.64 89.3999 196.56 89.2899C196.48 89.1799 196.5 89.0299 196.61 88.9499C198.98 87.2099 201.72 87.4499 204.13 89.5999C206.62 91.8199 214.58 105.84 214.92 106.44C214.99 106.56 214.94 106.7 214.83 106.77C214.81 106.78 214.79 106.79 214.76 106.8H214.77Z" fill="#434A59"/>
<path d="M205 85.8301C205 85.8301 200.83 86.7601 201.09 87.9801C201.35 89.2001 204.18 92.3701 205.43 92.4201C206.68 92.4701 208.24 92.6101 208.03 91.9001C207.82 91.1901 206.89 85.3001 205.01 85.8301H205Z" fill="#F6BE89"/>
<path d="M244.09 156.87C243.96 156.9 243.84 156.82 243.81 156.69L230.34 99.6701C230.31 99.5401 230.39 99.4101 230.52 99.3801C230.65 99.3501 230.78 99.4301 230.81 99.5601L244.28 156.58C244.31 156.71 244.23 156.84 244.1 156.87H244.09Z" fill="#F76757"/>
<path d="M190.81 142.88C190.65 142.95 190.47 142.88 190.39 142.72C186.5 134.51 188.35 128 188.43 127.72C188.48 127.55 188.66 127.45 188.83 127.5C189 127.55 189.1 127.73 189.05 127.9C189.03 127.96 187.19 134.47 190.97 142.44C191.05 142.6 190.97 142.79 190.82 142.87L190.81 142.88Z" fill="#C78667"/>
<path d="M207.55 92.6999C207.17 92.7099 205.96 92.71 204.56 92.43C202.77 92.06 201.62 90.26 200.86 89.07C200.56 88.6 200.47 88.1699 200.59 87.7699C200.76 87.2199 201.26 86.9799 201.32 86.9599C201.48 86.8899 201.67 86.96 201.74 87.12C201.81 87.28 201.74 87.47 201.58 87.54C201.57 87.54 201.28 87.6799 201.2 87.9599C201.14 88.1699 201.2 88.43 201.4 88.73C202.1 89.83 203.17 91.4999 204.69 91.8099C206.27 92.1299 207.63 92.07 207.64 92.07C207.81 92.07 207.96 92.2 207.97 92.37C207.97 92.55 207.84 92.6999 207.67 92.7099C207.67 92.7099 207.62 92.7099 207.55 92.7099V92.6999Z" fill="#C78667"/>
<path d="M111.12 197.55C110.93 197.55 110.74 197.44 110.66 197.27C108.53 192.71 106.19 193.67 103.79 191.8C103.58 191.64 103.54 191.34 103.71 191.13C103.87 190.92 104.18 190.88 104.38 191.05C106.94 193.05 109.36 192.21 111.56 196.92C111.67 197.15 111.56 197.42 111.31 197.52C111.25 197.54 111.18 197.56 111.12 197.56V197.55Z" fill="#5DA3AF"/>
<path d="M66.5897 130.91C66.4197 130.89 66.2898 130.73 66.3198 130.55C67.0798 124.88 71.0598 120.99 71.2298 120.83C71.3598 120.71 71.5598 120.71 71.6798 120.83C71.7998 120.96 71.7998 121.16 71.6798 121.28C71.6398 121.32 67.6898 125.17 66.9598 130.62C66.9398 130.79 66.7798 130.91 66.6098 130.9L66.5897 130.91Z" fill="#C66C67"/>
<path d="M154.59 97.15C154.09 96.91 153.61 96.71 153.17 96.55C157.13 99.12 163.19 103.55 167.66 109.09C172.66 115.28 177.76 121.44 180.52 124.84C181.61 124.03 182.8 123.3 184.11 122.69C176.35 112.84 162.93 101.14 154.59 97.15Z" fill="#F2EFED"/>
<path d="M144.65 65.08C144.65 65.08 145.31 64.81 145.11 64.03C144.91 63.25 144.57 63.55 143.81 63.23C143.49 63.09 142.74 62.1 141.83 60.98C141.81 60.9 141.76 60.83 141.67 60.77C141.67 60.77 141.66 60.77 141.65 60.76C140.78 59.71 139.79 58.59 138.88 58C138.66 57.71 138.41 57.43 138.12 57.21C137.22 56.51 135.27 56.04 134.33 56.85C133.95 57.17 134.5 57.71 134.87 57.39C135.31 57.02 136.43 57.28 136.91 57.44C136.98 57.46 137.05 57.49 137.12 57.52C135.28 57.4 133.42 57.7 132.51 59.88C131.48 62.37 131.69 63.97 131.69 63.97C130.35 68.24 138.41 77.46 138.66 76.17C138.9 74.88 144.22 73.13 143.92 69.8C143.75 67.89 144.56 68.05 144.56 68.05C144.56 68.05 145.75 68.21 145.76 66.85C145.76 65.49 144.67 65.1 144.67 65.1L144.65 65.08Z" fill="#434A59"/>
<path d="M139.73 72.1701L138.24 86.7501C137.82 88.3101 133.06 93.2201 127.19 89.3101C125.33 88.0701 127.07 84.7301 128.2 83.3001L136.36 69.8101L139.73 72.1601V72.1701Z" fill="#F6BE89"/>
<path d="M138.59 66.67L139.15 74.09C139.14 76.55 137.18 78.56 134.72 78.61C132.76 78.65 131.56 78.36 129.28 77.5C127.38 76.78 126.83 74.65 127.47 72.08C128.29 68.74 130 65.9 130.99 64.44C133.26 61.09 137.87 61.87 138.59 66.68V66.67Z" fill="#F6BE89"/>
<path d="M130.28 79.84C134.01 79.7 136.42 77.24 136.42 77.24L132.29 76.48L130.28 79.84Z" fill="#FF867A"/>
<path d="M137.78 73.9299L140.11 66.9999C140.02 66.4099 139.48 65.0199 138.88 65.4599C138.64 66.8599 137.23 70.1399 136.7 70.4999C136.09 70.9199 135.38 69.5899 133.09 68.9499C131.63 68.5399 129.4 67.6399 128.28 68.4999C127.48 69.1099 127.85 70.6599 126.22 72.4699C124.45 74.4399 126.26 76.9199 128.63 77.9299C130.88 78.8899 132.76 78.6499 134.73 78.6099C137.19 78.5499 137.78 76.3799 137.79 73.9299H137.78Z" fill="#434A59"/>
<path d="M133.18 69.7C132.4 69.61 131.02 69.38 129.38 68.78C129.1 68.68 128.8 68.93 128.86 69.22C128.97 69.8 128.94 70.46 129.51 71.03C130.37 71.9 132.11 71.87 133.42 70.33C133.62 70.09 133.49 69.72 133.18 69.69V69.7Z" fill="white"/>
<path d="M139.82 68.63C140.24 67.97 141.01 67.08 141.69 68.18C142.68 69.78 140.67 73.01 138.87 72.25C137.53 71.68 139.61 68.97 139.83 68.63H139.82Z" fill="#F6BE89"/>
<path d="M132.04 67.75C131.61 67.51 131.28 67.2 131.01 66.8C130.81 66.49 130.37 66.87 130.57 67.17C130.86 67.61 131.25 67.97 131.71 68.22C132.03 68.4 132.36 67.93 132.04 67.75Z" fill="#C66C67"/>
<path d="M135.08 65.78C135.03 65.75 134.87 65.65 134.7 65.82C134.57 65.94 134.46 66.12 134.42 66.3C134.37 66.51 134.53 66.69 134.74 66.68C135.03 66.67 135.43 65.98 135.08 65.78Z" fill="#434A59"/>
<path d="M131.69 64.7099C131.64 64.6799 131.48 64.5799 131.31 64.7499C131.18 64.8699 131.07 65.0499 131.03 65.2299C130.98 65.4399 131.14 65.6199 131.35 65.6099C131.64 65.5999 132.04 64.9099 131.69 64.7099Z" fill="#434A59"/>
<path d="M135.72 63.9401C136.08 64.1701 136.45 64.3901 136.8 64.6401C137.17 64.9001 136.77 65.4801 136.4 65.2201C136.05 64.9701 135.68 64.7601 135.32 64.5201C134.94 64.2701 135.34 63.7001 135.72 63.9401Z" fill="#434A59"/>
<path d="M132.57 63.1299C132.21 63.1599 131.85 63.1699 131.48 63.2299C131.1 63.2899 131.15 63.9799 131.53 63.9299C131.89 63.8799 132.25 63.8699 132.62 63.8299C133 63.7899 132.95 63.0999 132.57 63.1299Z" fill="#434A59"/>
<path d="M117.35 320.25C117.2 320.25 117.07 320.14 117.05 319.99C117 319.67 111.67 288.16 110.59 282.18C110.07 279.29 109.66 272.04 109.26 265.04C108.82 257.3 108.37 249.3 107.77 247.02C106.61 242.6 106.31 223.26 106.47 219.22C106.62 215.24 105.71 195.41 105.7 195.21C105.7 195.04 105.82 194.9 105.99 194.89C106.16 194.89 106.3 195.01 106.31 195.18C106.31 195.38 107.23 215.24 107.08 219.24C106.93 223.26 107.22 242.49 108.36 246.86C108.98 249.21 109.43 257.24 109.87 265C110.27 271.99 110.68 279.21 111.19 282.07C112.27 288.05 117.6 319.57 117.65 319.88C117.68 320.05 117.57 320.21 117.4 320.23C117.38 320.23 117.37 320.23 117.35 320.23V320.25Z" fill="#5DA3AF"/>
<path d="M91.5002 117.33C91.5002 117.33 91.4402 117.33 91.4102 117.33C91.1602 117.28 91.0002 117.04 91.0502 116.79C92.6602 108.89 91.6402 106.28 91.6302 106.26C91.5302 106.03 91.6402 105.76 91.8802 105.66C92.1102 105.56 92.3802 105.66 92.4802 105.9C92.5302 106.01 93.6402 108.71 91.9602 116.98C91.9202 117.2 91.7202 117.35 91.5102 117.35L91.5002 117.33Z" fill="#C4B5B5"/>
<path d="M149.71 117.84C149.61 117.84 149.52 117.81 149.43 117.75C149.33 117.67 146.91 115.82 144.43 111.49C141.79 106.87 142.79 104.06 142.83 103.94C142.92 103.7 143.18 103.58 143.42 103.67C143.66 103.76 143.78 104.02 143.69 104.26C143.68 104.3 142.82 106.83 145.22 111.03C147.59 115.18 149.95 116.99 149.97 117.01C150.17 117.16 150.21 117.45 150.06 117.65C149.97 117.77 149.83 117.83 149.69 117.83L149.71 117.84Z" fill="#C4B5B5"/>
<path d="M146.39 114.17C146.33 114.17 146.26 114.16 146.2 114.13C142.36 112.36 139.89 108.41 139.79 108.24C139.66 108.02 139.72 107.74 139.94 107.61C140.16 107.48 140.44 107.54 140.57 107.76C140.59 107.8 143 111.65 146.58 113.3C146.81 113.41 146.91 113.68 146.81 113.91C146.73 114.08 146.57 114.18 146.39 114.18V114.17Z" fill="#C4B5B5"/>
</g>
<defs>
<clipPath id="clip0_410_7480">
<rect width="249.55" height="334.83" fill="white"/>
</clipPath>
</defs>
</svg>
